{
.appVersion = "3526";
.formatVersion = 3;
DisplayStrings = (
"hey come vaL?JA0'

hoohhoĦAĦWĦҐ ĦALЬĦ VЛnLoJЬAWAHЬVAPVTДLTLXALŁЧvaVЦVЦTAOltjaWOholvhOCIAyATУVvwMFAhMvwtPTYTMJhoVattlгMØTato ytЛjahohoYAyyoalCBAWAOWO

AVAavaA Anvedi lvAvvoLTe siamo no taoAvolo ote
hii

HOAOH OAOA AOAOaoOoOOoo
AOAOA OAOAO AGAQACAO
ADADA DADAD
AVAWAYAT TAYAWAVA AFA",
"ӡ",
"Ԓԓ",
"ӠӡƷ",
"ӠӡƷǮ",
"̂",
"Ŋ",
"Ǿ",
"Ø",
"Ȥ",
"ŋ",
"ʒ",
"ǯ",
"ȥ",
"Ŧ",
"Ǥ",
"ҟ",
"ǥ",
"ŧ",
"ſ",
"̂̌ď",
"ť",
"Ľ",
"̌Ť",
"̌ď",
"ď"
);
customParameters = (
{
name = "Use Typo Metrics";
value = 1;
},
{
name = "meta Table";
value = (
{
data = "Latn, Cyrl";
tag = dlng;
},
{
data = "Latn, Cyrl";
tag = slng;
}
);
},
{
name = fsType;
value = (
);
},
{
name = "gasp Table";
value = {
65535 = 15;
};
}
);
date = "2026-05-26 02:29:35 +0000";
familyName = Lavasciuga;
featurePrefixes = (
{
automatic = 1;
code = "languagesystem DFLT dflt;

languagesystem latn dflt;
languagesystem latn AZE;
languagesystem latn CRT;
languagesystem latn KAZ;
languagesystem latn TAT;
languagesystem latn TRK;
languagesystem latn ROM;
languagesystem latn MOL;
languagesystem latn MAH;
languagesystem latn CAT;
languagesystem latn NLD;

languagesystem cyrl dflt;
languagesystem cyrl BGR;
languagesystem cyrl SRB;
languagesystem cyrl MKD;
";
name = Languagesystems;
}
);
features = (
{
automatic = 1;
code = "feature locl;
feature subs;
feature sinf;
feature sups;
feature numr;
feature dnom;
feature frac;
feature ordn;
";
tag = aalt;
},
{
automatic = 1;
code = "lookup ccmp_DFLT_1 {
	@CombiningTopAccents = [acutecomb brevecomb caroncomb circumflexcomb commaturnedabovecomb dieresiscomb dotaccentcomb gravecomb hungarumlautcomb macroncomb ringcomb tildecomb];
	lookupflag UseMarkFilteringSet @CombiningTopAccents;
	sub i' @CombiningTopAccents by idotless;
	sub j' @CombiningTopAccents by jdotless;
} ccmp_DFLT_1;
";
tag = ccmp;
},
{
automatic = 1;
code = "script latn;
language AZE;
lookup locl_latn_0 {
	sub i by idotaccent;
} locl_latn_0;
language CRT;
lookup locl_latn_0;

glyphs = (
{
glyphname = A;
kernLeft = A;
kernRight = A;
lastChange = "2026-06-06 18:20:49 +0000";
layers = (
{
anchors = (
{
name = bottom;
pos = (331,0);
},
{
name = ogonek;
pos = (596,10);
},
{
name = top;
pos = (331,700);
}
);
layerId = "FDF8D1BA-B4CE-4A91-B9C2-23316F7DE4E8";
shapes = (
{
closed = 1;
nodes = (
(365.84,700,o),
(405.84,684,o),
(430.84,620,cs),
(630.84,100,ls),
(669.84,-1,o),
(537.84,-39,o),
(500.84,50,cs),
(460.84,145,l),
(200.84,145,l),
(160.84,50,ls),
(123.84,-39,o),
(-7.16,1,o),
(30.84,100,cs),
(230.84,620,ls),
(254.84,684,o),
(295.84,700,o),
(330.84,700,cs)
);
},
{
closed = 1;
nodes = (
(415.84,280,l),
(330.84,530,l),
(245.84,280,l)
);
},
{
closed = 1;
nodes = (
(294.84,716,o)
);
},
{
closed = 1;
nodes = (
(294.84,736,o)
);
}
);
width = 661.97;
}
);
metricLeft = A;
metricRight = A;
unicode = 65;
},
{
glyphname = AE;
kernLeft = A;
lastChange = "2026-06-06 11:27:46 +0000";
layers = (
{
layerId = "FDF8D1BA-B4CE-4A91-B9C2-23316F7DE4E8";
shapes = (
{
closed = 1;
nodes = (
(261.94,275,l),
(387.94,564,o),
(382.94,560,o),
(391.94,560,cs),
(446.94,560,l),
(446.94,275,l)
);
},
{
closed = 1;
nodes = (
(581.94,135,l),
(586.94,275,l),
(801.94,275,ls),
(906.94,275,o),
(906.94,420,o),
(801.94,420,cs),
(581.94,420,l),
(581.94,560,l),
(846.94,560,ls),
(950.94,560,o),
(950.94,700,o),
(846.94,700,cs),
(411.94,700,ls),
(324.94,700,o),
(282.94,664,o),
(251.94,595,cs),
(31.94,105,ls),
(-9.06,14,o),
(119.94,-52,o),
(161.94,50,cs),
(196.94,135,l),
(446.94,135,l),
(446.94,100,ls),
(446.94,38,o),
(484.94,0,o),
(556.94,0,cs),
(846.94,0,ls),
(950.94,0,o),
(950.94,135,o),
(846.94,135,cs)
);
}
);
width = 950.94;
}
);
unicode = 198;
},
{
glyphname = B;
lastChange = "2026-06-06 19:59:53 +0000";
layers = (
{
anchors = (
{
name = bottom;
pos = (248,0);
},
{
name = center;
pos = (248,350);
},
{
name = top;
pos = (248,700);
}
);
layerId = "FDF8D1BA-B4CE-4A91-B9C2-23316F7DE4E8";
shapes = (
{
closed = 1;
nodes = (
(483,405,o),
(508,445,o),
(508,505,cs),
(508,620,o),
(428,700,o),
(293,700,cs),
(133,700,ls),
(75,700,o),
(43,666,o),
(43,610,cs),
(43,90,ls),
(43,35,o),
(75,0,o),
(133,0,cs),
(338,0,ls),
(481,0,o),
(553,105,o),
(553,210,cs),
(553,285,o),
(518,340,o),
(458,375,c)
);
},
{
closed = 1;
nodes = (
(406,565,o),
(406,415,o),
(293,415,cs),
(173,415,l),
(173,565,l),
(293,565,ls)
);
},
{
closed = 1;
nodes = (
(173,135,l),
(173,285,l),
(338,285,ls),
(446,285,o),
(446,135,o),
(338,135,cs)
);
}
);
width = 579;
}
);
unicode = 66;
},
{
glyphname = C;
kernLeft = O;
kernRight = C;
lastChange = "2026-06-06 19:51:58 +0000";
layers = (
{
anchors = (
{
name = bottom;
pos = (332,-5);
},
{
name = top;
pos = (342,710);
}
);
layerId = "FDF8D1BA-B4CE-4A91-B9C2-23316F7DE4E8";
shapes = (
{
closed = 1;
nodes = (
(175,-5,o),
(27,160,o),
(27,360,cs),
(27,552,o),
(177,710,o),
(357,710,cs),
(442,710,o),
(532,675,o),
(582,615,cs),
(644,541,o),
(562,450,o),
(487,520,cs),
(363,636,o),
(166,553,o),
(166,360,cs),
(166,237,o),
(252,135,o),
(357,135,cs),
(405,134,o),
(453,153,o),
(487,185,cs),
(562,255,o),
(652,160,o),
(582,85,cs),
(524,23,o),
(441,-5,o),
(357,-5,cs)
);
}
);
width = 633.24;
}
);
unicode = 67;
},
{
glyphname = D;
kernLeft = H;
kernRight = O;
lastChange = "2026-06-06 11:31:15 +0000";
layers = (
{
anchors = (
{
name = bottom;
pos = (323,0);
},
{
name = center;
pos = (163,350);
},
{
name = top;
pos = (313,700);
}
);
layerId = "FDF8D1BA-B4CE-4A91-B9C2-23316F7DE4E8";
shapes = (
{
closed = 1;
nodes = (
(518,465,o),
(443,560,o),
(298,560,cs),
(178,560,l),
(178,140,l),
(298,140,ls),
(443,140,o),
(518,235,o),
(518,350,cs)
);
},
{
closed = 1;
nodes = (
(43,605,ls),
(43,669,o),
(73,700,o),
(143,700,cs),
(298,700,ls),
(538,700,o),
(653,545,o),
(653,350,cs),
(653,160,o),
(538,0,o),
(298,0,cs),
(133,0,ls),
(76,0,o),
(43,32,o),
(43,90,cs)
);
}
);
width = 681;
}
);
unicode = 68;
},
{
glyphname = Eth;
kernRight = D;
lastChange = "2026-06-06 11:34:18 +0000";
layers = (
{
layerId = "FDF8D1BA-B4CE-4A91-B9C2-23316F7DE4E8";
shapes = (
{
pos = (56.5,0);
ref = D;
},
{
closed = 1;
nodes = (
(106.5,280,ls),
(-3.5,280,o),
(-3.5,420,o),
(106.5,420,cs),
(341.5,420,ls),
(453.5,420,o),
(453.5,280,o),
(341.5,280,cs)
);
}
);
width = 754.5;
}
);
unicode = 208;
},
{
glyphname = E;
lastChange = "2026-06-03 23:31:04 +0000";
layers = (
{
anchors = (
{
name = bottom;
pos = (258,0);
},
{
name = ogonek;
pos = (458,70);
},
{
name = top;
pos = (283,700);
},
{
name = topleft;
pos = (113,700);
}
);
layerId = "FDF8D1BA-B4CE-4A91-B9C2-23316F7DE4E8";
shapes = (
{
closed = 1;
nodes = (
(553,140,o),
(553,0,o),
(453,0,cs),
(138,0,ls),
(70,0,o),
(43,34,o),
(43,95,cs),
(43,605,ls),
(43,671,o),
(74,700,o),
(138,700,cs),
(453,700,ls),
(553,700,o),
(553,560,o),
(453,560,cs),
(178,560,l),
(178,420,l),
(413,420,ls),
(513,420,o),
(513,280,o),
(413,280,cs),
(178,280,l),
(178,140,l),
(453,140,ls)
);
}
);
width = 554;
}
);
unicode = 69;
},
{
glyphname = Schwa;
kernLeft = O;
kernRight = O;
lastChange = "2026-06-06 20:03:19 +0000";
layers = (
{
layerId = "FDF8D1BA-B4CE-4A91-B9C2-23316F7DE4E8";
shapes = (
{
closed = 1;
nodes = (
(441.302,134.693,o),
(511.815,192.767,o),
(539.357,274.208,c),
(179.328,274.208,l),
(207.302,183.235,o),
(287.239,134.693,o),
(358.878,134.693,cs)
);
},
{
closed = 1;
nodes = (
(176.726,664.409,o),
(266.036,706.26,o),
(358.878,706.26,cs),
(542.541,706.26,o),
(691.964,546.501,o),
(691.964,350.13,cs),
(691.964,153.759,o),
(542.541,-6,o),
(358.878,-6,cs),
(188.012,-6,o),
(46.802,124.385,o),
(30.686,300.943,cs),
(25.184,361.221,o),
(59.207,410.071,o),
(129.419,410.071,cs),
(542.815,410.071,l),
(518.149,496.148,o),
(444.801,564.489,o),
(358.878,564.489,cs),
(303.037,564.489,o),
(259.307,539.572,o),
(235.169,517.09,cs),
(150.306,438.046,o),
(53.535,521.438,o),
(129.339,609.414,cs)
);
}
);
width = 714.25;
}
);
unicode = 399;
},
{
glyphname = F;
kernRight = F;
lastChange = "2026-06-06 12:23:09 +0000";
layers = (
{
anchors = (
{
name = bottom;
pos = (283,0);
},
{
name = top;
pos = (283,700);
}
);
layerId = "FDF8D1BA-B4CE-4A91-B9C2-23316F7DE4E8";
shapes = (
{
closed = 1;
nodes = (
(553,560,o),
(553,700,o),
(453,700,cs),
(138,700,ls),
(67,700,o),
(43,667,o),
(43,605,cs),
(43,75,ls),
(43,-20,o),
(178,-25,o),
(178,75,cs),
(178,280,l),
(413,280,ls),
(513,280,o),
(513,420,o),
(413,420,cs),
(178,420,l),
(178,560,l),
(453,560,ls)
);
}
);
width = 552;
}
);
unicode = 70;
},
{
glyphname = G;
kernLeft = O;
kernRight = O;
lastChange = "2026-06-06 11:31:23 +0000";
layers = (
{
anchors = (
{
name = bottom;
pos = (358.08,0);
},
{
name = top;
pos = (358.08,710);
}
);
layerId = "FDF8D1BA-B4CE-4A91-B9C2-23316F7DE4E8";
shapes = (
{
closed = 1;
nodes = (
(418.08,-7,o),
(348.08,-5,cs),
(203.08,0,o),
(33.08,120,o),
(28.08,350,cs),
(25.08,486,o),
(103.08,620,o),
(218.08,675,cs),
(334.08,730,o),
(483.08,715,o),
(553.08,650,cs),
(613.08,594,o),
(558.08,480,o),
(468.08,540,cs),
(415.08,575,o),
(349.08,584,o),
(283.08,555,cs),
(212.08,515,o),
(163.08,455,o),
(163.08,350,cs),
(163.08,195,o),
(272.08,137,o),
(353.08,135,c),
(440.08,131,o),
(530.08,185,o),
(553.08,285,c),
(403.08,280,ls),
(353.08,278,o),
(327.08,280,o),
(303.08,305,cs),
(268.08,350,o),
(288.08,425,o),
(368.08,425,cs),
(583.08,425,ls),
(648.08,425,o),
(693.08,380,o),
(688.08,305,cs),
(682.08,215,o),
(648.08,135,o),
(573.08,70,cs),
(501.08,8,o)
);
}
);
width = 714.46;
}
);
unicode = 71;
},
{
glyphname = Gstroke;
lastChange = "2026-06-07 00:22:34 +0000";
layers = (
{
anchors = (
{
name = bottom;
pos = (357.08,0);
},
{
name = top;
pos = (357.08,710);
}
);
layerId = "FDF8D1BA-B4CE-4A91-B9C2-23316F7DE4E8";
shapes = (
{
closed = 1;
nodes = (
(500.08,8,o),
(417.08,-5.5,o),
(347.08,-5.5,cs),
(202.08,-5.5,o),
(32.08,120,o),
(27.08,350,cs),
(24.08,486,o),
(102.08,620,o),
(217.08,675,cs),
(333.08,730,o),
(482.08,715,o),
(552.08,650,cs),
(612.08,594,o),
(557.08,482,o),
(467.08,540,cs),
(413.692,574.405,o),
(348.08,584,o),
(282.08,555,c),
(211.08,515,o),
(162.08,455,o),
(162.08,350,cs),
(162.08,195,o),
(275.424,121.767,o),
(372.08,123,cs),
(460.428,124.127,o),
(481.755,162.823,o),
(481.755,162.823,c),
(432.898,162.823,l),
(335.898,162.823,o),
(335.9,290.611,o),
(432.898,290.611,cs),
(546.476,290.611,l),
(546.476,327,l),
(384.58,327,ls),
(284.56,327,o),
(284.56,458,o),
(384.58,458,cs),
(572.08,458,ls),
(647.08,458,o),
(682.958,403.007,o),
(682.958,338,cs),
(682.958,290.611,l),
(780.787,290.611,o),
(781.507,162.823,o),
(682.898,162.823,cs),
(643.613,162.823,l),
(625.3,127.603,o),
(601.356,95.373,o),
(572.08,70,cs)
);
}
);
width = 780.15;
}
);
unicode = 484;
},
{
glyphname = H;
lastChange = "2026-06-06 19:59:53 +0000";
layers = (
{
anchors = (
{
name = bottom;
pos = (108,0);
},
{
name = center;
pos = (328,525);
},
{
name = top;
pos = (328,700);
},
{
name = topleft;
pos = (3,700);
}
);
layerId = "FDF8D1BA-B4CE-4A91-B9C2-23316F7DE4E8";
shapes = (
{
closed = 1;
nodes = (
(613,75,ls),
(613,-25,o),
(473,-25,o),
(473,75,cs),
(473,280,l),
(183,280,l),
(183,75,ls),
(183,-25,o),
(43,-25,o),
(43,75,cs),
(43,625,ls),
(43,724,o),
(183,724,o),
(183,625,cs),
(183,420,l),
(473,420,l),
(473,625,ls),
(473,726,o),
(613,721,o),
(613,625,cs)
);
}
);
width = 656;
}
);
unicode = 72;
},
{
glyphname = Hbar;
kernLeft = Hbar;
kernRight = Hbar;
lastChange = "2026-06-06 23:20:41 +0000";
layers = (
{
layerId = "FDF8D1BA-B4CE-4A91-B9C2-23316F7DE4E8";
shapes = (
{
closed = 1;
nodes = (
(268,369,l),
(268,468,l),
(568,468,l),
(568,369,l)
);
},
{
closed = 1;
nodes = (
(126,-25,o),
(266,-25,o),
(268,75,cs),
(268,235,l),
(568,235,l),
(568,75,ls),
(566,-25,o),
(706,-25,o),
(708,75,cs),
(708,465,l),
(726,465,ls),
(834,465,o),
(834,605,o),
(726,605,cs),
(708,605,l),
(708,625,ls),
(706,720,o),
(566,725,o),
(568,625,cs),
(568,605,l),
(268,605,l),
(268,625,ls),
(266,725,o),
(126,720,o),
(128,625,cs),
(128,605,l),
(108,605,ls),
(-4,605,o),
(-4,465,o),
(108,465,cs),
(128,465,l),
(128,75,ls)
);
}
);
width = 831;
}
);
unicode = 294;
},
{
glyphname = I;
kernRight = I;
lastChange = "2026-06-06 11:47:41 +0000";
layers = (
{
anchors = (
{
name = bottom;
pos = (113,0);
},
{
name = ogonek;
pos = (113,70);
},
{
name = top;
pos = (113,700);
},
{
name = topleft;
pos = (3,700);
}
);
layerId = "FDF8D1BA-B4CE-4A91-B9C2-23316F7DE4E8";
shapes = (
{
closed = 1;
nodes = (
(43,-25,o),
(43,75,cs),
(43,625,ls),
(43,723,o),
(183,723,o),
(183,625,cs),
(183,75,ls),
(183,-25,o)
);
}
);
width = 226;
}
);
unicode = 73;
},
{
glyphname = J;
kernLeft = J;
kernRight = J;
lastChange = "2026-06-06 19:52:40 +0000";
layers = (
{
anchors = (
{
name = bottom;
pos = (267.47,0);
},
{
name = top;
pos = (267.47,700);
}
);
layerId = "FDF8D1BA-B4CE-4A91-B9C2-23316F7DE4E8";
shapes = (
{
closed = 1;
nodes = (
(160.47,-5,o),
(92.47,15,o),
(47.47,60,cs),
(1.47,106,o),
(27.47,180,o),
(87.47,180,cs),
(130.47,180,o),
(152.47,135,o),
(217.47,135,cs),
(307.47,135,o),
(367.47,195,o),
(367.47,350,cs),
(367.47,435,o),
(367.47,502,o),
(367.47,625,cs),
(367.47,724,o),
(502.97,724,o),
(502.97,625,cs),
(502.97,502,o),
(502.97,460,o),
(502.97,385,cs),
(502.97,266,o),
(497.47,160,o),
(432.47,85,cs),
(390.47,36,o),
(327.47,-5,o),
(222.47,-5,cs)
);
}
);
width = 539.56;
}
);
unicode = 74;
},
{
glyphname = K;
kernRight = X;
lastChange = "2026-06-06 12:17:12 +0000";
layers = (
{
anchors = (
{
name = bottom;
pos = (278,0);
},
{
name = top;
pos = (278,700);
}
);
layerId = "FDF8D1BA-B4CE-4A91-B9C2-23316F7DE4E8";
shapes = (
{
closed = 1;
nodes = (
(283,355,l),
(503,570,ls),
(584,649,o),
(478,740,o),
(408,670,cs),
(183,445,l),
(183,625,ls),
(183,725,o),
(43,725,o),
(43,625,cs),
(43,75,ls),
(43,-25,o),
(183,-25,o),
(183,75,cs),
(183,265,l),
(453,30,ls),
(539,-44,o),
(621,63,o),
(543,130,cs)
);
}
);
width = 598.32;
}
);
unicode = 75;
},
{
glyphname = L;
kernRight = L;
lastChange = "2026-06-06 19:59:53 +0000";
layers = (
{
anchors = (
{
name = bottom;
pos = (278,0);
},
{
name = center;
pos = (378,350);
},
{
name = top;
pos = (278,700);
},
{
name = topright;
pos = (548,700);
}
);
layerId = "FDF8D1BA-B4CE-4A91-B9C2-23316F7DE4E8";
shapes = (
{
closed = 1;
nodes = (
(133,0,ls),
(76,0,o),
(43,31,o),
(43,90,cs),
(43,625,ls),
(43,723,o),
(183,723,o),
(183,625,cs),
(183,140,l),
(458,140,ls),
(559,140,o),
(559,0,o),
(458,0,cs)
);
}
);
width = 557.75;
}
);
unicode = 76;
},
{
glyphname = Lcaron;
lastChange = "2026-06-06 23:16:24 +0000";
layers = (
{
anchors = (
{
name = bottom;
pos = (278,0);
},
{
name = center;
pos = (378,350);
},
{
name = top;
pos = (367.32,700);
},
{
name = topright;
pos = (548,700);
}
);
layerId = "FDF8D1BA-B4CE-4A91-B9C2-23316F7DE4E8";
shapes = (
{
closed = 1;
nodes = (
(133,0,ls),
(76,0,o),
(43,31,o),
(43,90,cs),
(43,625,ls),
(43,723,o),
(183,723,o),
(183,625,cs),
(183,140,l),
(458,140,ls),
(559,140,o),
(559,0,o),
(458,0,cs)
);
},
{
pos = (239.91,0);
ref = caroncomb.alt;
}
);
width = 557.75;
}
);
unicode = 317;
},
{
glyphname = M;
kernLeft = M;
kernRight = M;
lastChange = "2026-06-06 19:59:53 +0000";
layers = (
{
anchors = (
{
name = bottom;
pos = (437.98,0);
},
{
name = bottomright;
pos = (780.497,0);
},
{
name = top;
pos = (437.98,700);
}
);
layerId = "FDF8D1BA-B4CE-4A91-B9C2-23316F7DE4E8";
shapes = (
{
closed = 1;
nodes = (
(367.669,-23.957,o),
(342.98,90,cs),
(262.98,455,l),
(162.98,55,ls),
(140.492,-34.952,o),
(-1.02,-9,o),
(27.98,90,cs),
(162.98,610,ls),
(190.98,729,o),
(331.652,729,o),
(357.98,610,cs),
(437.98,245,l),
(517.98,610,ls),
(544.014,728.778,o),
(678.98,728.778,o),
(712.98,610,cs),
(847.98,90,ls),
(869.98,-7,o),
(734.631,-31.604,o),
(712.98,55,cs),
(612.98,455,l),
(532.98,90,ls),
(508.003,-23.957,o)
);
}
);
width = 874.36;
}
);
unicode = 77;
},
{
glyphname = N;
lastChange = "2026-06-03 23:31:04 +0000";
layers = (
{
anchors = (
{
name = bottom;
pos = (328,0);
},
{
name = top;
pos = (328,700);
}
);
layerId = "FDF8D1BA-B4CE-4A91-B9C2-23316F7DE4E8";
shapes = (
{
closed = 1;
nodes = (
(478,255,l),
(473,625,ls),
(473,720,o),
(613,720,o),
(613,625,cs),
(613,90,ls),
(613,0,o),
(511,-31,o),
(458,45,cs),
(178,445,l),
(183,75,ls),
(183,-25,o),
(43,-25,o),
(43,75,cs),
(43,610,ls),
(43,700,o),
(145,731,o),
(198,655,cs)
);
}
);
width = 656;
}
);
unicode = 78;
},
{
glyphname = Eng;
lastChange = "2026-06-06 23:51:11 +0000";
layers = (
{
anchors = (
{
name = bottom;
pos = (328,0);
},
{
name = top;
pos = (328,700);
}
);
layerId = "FDF8D1BA-B4CE-4A91-B9C2-23316F7DE4E8";
shapes = (
{
closed = 1;
nodes = (
(178,445,l),
(183,75,ls),
(183,-25,o),
(43,-25,o),
(43,75,cs),
(43,610,ls),
(43,700,o),
(145,731,o),
(198,655,cs),
(478,255,l),
(473,625,ls),
(473,720,o),
(612.931,720,o),
(613,625,cs),
(613.453,3.536,ls),
(613.453,-147.967,o),
(518.332,-238.964,o),
(363.332,-238.964,cs),
(258.332,-238.964,o),
(258.332,-104.775,o),
(363.332,-104.775,cs),
(458.351,-104.775,o),
(502.564,-16.401,o),
(465,37,cs)
);
}
);
width = 656;
}
);
unicode = 330;
},
{
glyphname = O;
kernLeft = O;
kernRight = O;
lastChange = "2026-06-06 19:59:53 +0000";
layers = (
{
anchors = (
{
name = bottom;
pos = (357,15);
},
{
name = center;
pos = (362,350);
},
{
name = ogonek;
pos = (357,65);
},
{
name = top;
pos = (357,715);
},
{
name = topleft;
pos = (27,705);
},
{
name = topright;
pos = (687,700);
}
);
layerId = "FDF8D1BA-B4CE-4A91-B9C2-23316F7DE4E8";
shapes = (
{
closed = 1;
nodes = (
(176,-5,o),
(28,160,o),
(28,355,cs),
(28,550,o),
(176,710,o),
(357,710,cs),
(542,710,o),
(692,550,o),
(692,355,cs),
(692,160,o),
(542,-5,o),
(357,-5,cs)
);
},
{
closed = 1;
nodes = (
(252,570,o),
(161,474,o),
(161,355,cs),
(161,236,o),
(252,134,o),
(357,134,cs),
(466,134,o),
(558,236,o),
(558,355,cs),
(558,474,o),
(466,570,o),
(357,570,cs)
);
}
);
width = 719;
}
);
unicode = 79;
},
{
glyphname = Oslash;
kernLeft = Oslash;
kernRight = Oslash;
lastChange = "2026-06-06 23:51:29 +0000";
layers = (
{
anchors = (
{
name = bottom;
pos = (406,0);
},
{
name = top;
pos = (406,700);
}
);
layerId = "FDF8D1BA-B4CE-4A91-B9C2-23316F7DE4E8";
shapes = (
{
closed = 1;
nodes = (
(599.85,254,o),
(545.85,195,cs),
(479.85,123,o),
(377.85,119,o),
(300.85,165,c),
(585.85,420,l),
(617.85,341,o)
);
},
{
closed = 1;
nodes = (
(197.85,426,o),
(270.85,505,cs),
(337.85,580,o),
(435.85,580,o),
(510.85,530,c),
(225.85,275,l),
(209.85,320,o)
);
},
{
closed = 1;
nodes = (
(751.85,740,o),
(675.85,675,cs),
(615.85,625,l),
(471.85,746,o),
(291.85,722,o),
(176.85,605,cs),
(54.85,477,o),
(54.85,293,o),
(115.85,175,c),
(50.85,115,ls),
(-19.15,58,o),
(60.85,-49,o),
(140.85,25,cs),
(195.85,75,l),
(328.85,-45,o),
(517.85,-24,o),
(635.85,94,cs),
(750.85,207,o),
(772.85,385,o),
(695.85,520,c),
(760.85,580,ls),
(832.85,638,o)
);
}
);
width = 812.82;
}
);
unicode = 216;
},
{
glyphname = P;
kernRight = P;
lastChange = "2026-06-06 11:55:33 +0000";
layers = (
{
anchors = (
{
name = bottom;
pos = (253,0);
},
{
name = top;
pos = (253,700);
}
);
layerId = "FDF8D1BA-B4CE-4A91-B9C2-23316F7DE4E8";
shapes = (
{
closed = 1;
nodes = (
(138,700,ls),
(71,700,o),
(43,665,o),
(43,605,cs),
(43,75,ls),
(43,-29,o),
(178,-25,o),
(178,75,cs),
(178,285,l),
(308,285,ls),
(449,285,o),
(523,391,o),
(523,495,cs),
(523,595,o),
(449,700,o),
(308,700,cs)
);
},
{
closed = 1;
nodes = (
(178,415,l),
(178,570,l),
(303,570,ls),
(414,570,o),
(410,415,o),
(303,415,cs)
);
}
);
width = 549;
}
);
unicode = 80;
},
{
glyphname = Thorn;
kernRight = O;
lastChange = "2026-06-06 19:59:53 +0000";
layers = (
{
anchors = (
{
name = bottom;
pos = (196.89,0);
},
{
name = ogonek;
pos = (39.89,70);
},
{
name = top;
pos = (196.89,700);
},
{
name = topleft;
pos = (-70.11,700);
}
);
layerId = "FDF8D1BA-B4CE-4A91-B9C2-23316F7DE4E8";
shapes = (
{
closed = 1;
nodes = (
(184.999,280,l),
(184.999,425,l),
(309.999,425,l),
(420.999,423,o),
(416.999,278,o),
(309.999,280,c)
);
},
{
closed = 1;
nodes = (
(182.999,558,l),
(182.999,625,l),
(182.999,723,o),
(42.999,723,o),
(42.999,625,c),
(42.999,75,l),
(42.999,-25,o),
(182.999,-25,o),
(182.999,75,c),
(182.999,145,l),
(314.999,145,l),
(455.999,145,o),
(529.999,249,o),
(529.999,355,c),
(529.999,453,o),
(455.999,558,o),
(314.999,558,c)
);
}
);
width = 556;
}
);
unicode = 222;
},
{
glyphname = Q;
kernLeft = O;
lastChange = "2026-06-06 19:59:53 +0000";
layers = (
{
layerId = "FDF8D1BA-B4CE-4A91-B9C2-23316F7DE4E8";
shapes = (
{
closed = 1;
nodes = (
(669,210,o),
(691,283,o),
(691,360,cs),
(691,552,o),
(541,712,o),
(357,712,cs),
(175,712,o),
(27,552,o),
(27,360,cs),
(27,160,o),
(175,-5,o),
(357,-5,c),
(424,-5,o),
(486,16,o),
(537,50,c),
(567,20,ls),
(642,-55,o),
(740,42,o),
(667,115,cs),
(632,150,l)
);
},
{
closed = 1;
nodes = (
(251,134.5,o),
(161,237,o),
(161,360,cs),
(161,475,o),
(251,574,o),
(357,574,cs),
(465,574,o),
(557,475,o),
(557,360,cs),
(557,324,o),
(547,280,o),
(532,260,c),
(507,285,ls),
(432,360,o),
(334,263,o),
(407,190,cs),
(442,155,l),
(417,142,o),
(389,134.5,o),
(357,134.5,cs)
);
}
);
width = 721.72;
}
);
unicode = 81;
},
{
glyphname = R;
lastChange = "2026-06-06 19:59:53 +0000";
layers = (
{
anchors = (
{
name = bottom;
pos = (253,0);
},
{
name = top;
pos = (253,700);
}
);
layerId = "FDF8D1BA-B4CE-4A91-B9C2-23316F7DE4E8";
shapes = (
{
closed = 1;
nodes = (
(478,305,o),
(523,400,o),
(523,490,cs),
(523,675,o),
(359,700,o),
(273,700,cs),
(113,700,ls),
(74,700,o),
(43,669,o),
(43,630,c),
(43,75,ls),
(43,-25,o),
(178,-25,o),
(178,75,cs),
(178,290,l),
(393,35,ls),
(464,-49,o),
(569,46,o),
(498,125,cs),
(353,285,l)
);
},
{
closed = 1;
nodes = (
(415,565,o),
(415,415,o),
(308,415,cs),
(178,415,l),
(178,565,l),
(303,565,ls)
);
}
);
width = 552;
}
);
unicode = 82;
},
{
glyphname = S;
lastChange = "2026-06-03 23:15:07 +0000";
layers = (
{
anchors = (
{
name = bottom;
pos = (250.7,0);
},
{
name = top;
pos = (265.7,705);
}
);
layerId = "FDF8D1BA-B4CE-4A91-B9C2-23316F7DE4E8";
shapes = (
{
closed = 1;
nodes = (
(210.7,-40,o),
(65.7,60,cs),
(-14.3,115,o),
(50.7,235,o),
(145.7,175,cs),
(235.7,115,o),
(375.7,124,o),
(375.7,210,cs),
(375.7,250,o),
(349.7,266,o),
(265.7,285,cs),
(200.7,300,o),
(140.7,310,o),
(80.7,365,cs),
(38.7,403,o),
(20.7,465,o),
(30.7,515,cs),
(40.7,590,o),
(80.7,635,o),
(130.7,665,cs),
(220.7,725,o),
(370.7,710,o),
(445.7,645,cs),
(510.7,585,o),
(452.7,484,o),
(375.7,530,cs),
(325.7,560,o),
(262.7,588,o),
(210.7,555,cs),
(170.7,530,o),
(160.7,480,o),
(190.7,455,cs),
(220.7,430,o),
(300.7,425,o),
(380.7,395,cs),
(420.7,380,o),
(480.7,360,o),
(510.7,270,cs),
(525.7,220,o),
(525.7,115,o),
(430.7,45,cs),
(360.7,-5,o)
);
}
);
width = 544.02;
}
);
unicode = 83;
},
{
glyphname = Germandbls;
lastChange = "2026-06-06 19:59:53 +0000";
layers = (
{
layerId = "FDF8D1BA-B4CE-4A91-B9C2-23316F7DE4E8";
shapes = (
{
closed = 1;
nodes = (
(239,120,o),
(344,135,cs),
(384,141,o),
(424,163,o),
(424,205,cs),
(424,248,o),
(385,268,o),
(334,275,cs),
(259,285,o),
(246,395,o),
(329,420,cs),
(404,443,o),
(399,570,o),
(294,575,cs),
(229,578,o),
(174,539,o),
(174,460,cs),
(174,80,ls),
(174,-25,o),
(39,-25,o),
(39,80,cs),
(39,460,ls),
(39,602,o),
(134,710,o),
(284,710,cs),
(399,710,o),
(514,633,o),
(514,505,cs),
(514,430,o),
(479,385,o),
(464,370,c),
(519,340,o),
(558.5,289,o),
(558.5,201,cs),
(558.5,91,o),
(479,10,o),
(359,0,cs),
(263,-8,o)
);
}
);
width = 585.15;
}
);
unicode = 7838;
},
{
glyphname = T;
kernLeft = T;
kernRight = T;
lastChange = "2026-06-06 18:15:29 +0000";
layers = (
{
anchors = (
{
name = bottom;
pos = (318.5,0);
},
{
name = center;
pos = (318.5,350);
},
{
name = top;
pos = (318.5,700);
}
);
layerId = "FDF8D1BA-B4CE-4A91-B9C2-23316F7DE4E8";
shapes = (
{
closed = 1;
nodes = (
(632.5,700,o),
(632.5,560,o),
(528.5,560,cs),
(388.5,560,l),
(388.5,80,ls),
(388.5,-27,o),
(243.5,-27,o),
(243.5,80,cs),
(243.5,560,l),
(103.5,560,ls),
(-2.5,560,o),
(-2.5,700,o),
(103.5,700,cs),
(528.5,700,ls)
);
}
);
width = 630.5;
}
);
unicode = 84;
},
{
glyphname = U;
lastChange = "2026-06-06 19:59:53 +0000";
layers = (
{
anchors = (
{
name = bottom;
pos = (322,0);
},
{
name = ogonek;
pos = (327,65);
},
{
name = top;
pos = (322,700);
},
{
name = topright;
pos = (657,700);
}
);
layerId = "FDF8D1BA-B4CE-4A91-B9C2-23316F7DE4E8";
shapes = (
{
closed = 1;
nodes = (
(222,-35,o),
(112,90,cs),
(44,170,o),
(37,243,o),
(37,380,c),
(37,625,ls),
(37,724,o),
(177,724,o),
(177,625,cs),
(177,380,l),
(177,248,o),
(183,219,o),
(217,180,cs),
(267,121,o),
(368,121,o),
(427,180,cs),
(459,219,o),
(468,248,o),
(468,380,c),
(468,625,ls),
(468,725,o),
(607,725,o),
(607,625,cs),
(607,380,l),
(607,243,o),
(599,170,o),
(532,90,cs),
(418,-35,o)
);
}
);
width = 643;
}
);
unicode = 85;
},
{
glyphname = V;
kernLeft = V;
kernRight = V;
lastChange = "2026-06-06 12:22:04 +0000";
layers = (
{
anchors = (
{
name = bottom;
pos = (329.96,0);
},
{
name = top;
pos = (329.96,700);
}
);
layerId = "FDF8D1BA-B4CE-4A91-B9C2-23316F7DE4E8";
shapes = (
{
closed = 1;
nodes = (
(329.96,165,l),
(159.96,650,l),
(123.96,741,o),
(-5.04,701,o),
(29.96,600,c),
(229.96,80,ls),
(255.96,20,o),
(296.96,1,o),
(329.96,0,cs),
(366.96,1,o),
(407.96,20,o),
(429.96,80,cs),
(629.96,600,ls),
(669.96,700,o),
(538.96,739,o),
(499.96,650,c)
);
}
);
width = 661.47;
}
);
unicode = 86;
},
{
glyphname = W;
kernLeft = W;
kernRight = W;
lastChange = "2026-06-06 19:59:53 +0000";
layers = (
{
anchors = (
{
name = bottom;
pos = (442.02,0);
},
{
name = top;
pos = (442.02,700);
}
);
layerId = "FDF8D1BA-B4CE-4A91-B9C2-23316F7DE4E8";
shapes = (
{
closed = 1;
nodes = (
(510.596,725.071,o),
(537.02,605,cs),
(617.02,245,l),
(717.02,645,ls),
(739.08,733.24,o),
(877.02,708,o),
(852.02,610,cs),
(717.02,90,ls),
(686.02,-29,o),
(548.895,-29,o),
(522.02,90,cs),
(442.02,445,l),
(357.02,90,ls),
(328.499,-29.116,o),
(193.02,-29.116,o),
(162.02,90,cs),
(27.02,610,ls),
(2.02,705,o),
(140.725,730.179,o),
(162.02,645,cs),
(262.02,245,l),
(342.02,605,ls),
(368.702,725.071,o)
);
}
);
width = 879.05;
}
);
unicode = 87;
},
{
glyphname = X;
kernLeft = X;
kernRight = X;
lastChange = "2026-06-06 12:11:47 +0000";
layers = (
{
anchors = (
{
name = bottom;
pos = (310.84,0);
},
{
name = top;
pos = (310.84,700);
}
);
layerId = "FDF8D1BA-B4CE-4A91-B9C2-23316F7DE4E8";
shapes = (
{
closed = 1;
nodes = (
(450.84,50,ls),
(480.84,10,o),
(500.84,0,o),
(530.84,0,cs),
(585.84,0,o),
(610.84,65,o),
(575.84,110,cs),
(395.84,350,l),
(575.84,580,l),
(640.84,670,o),
(530.84,750,o),
(465.84,665,cs),
(310.84,460,l),
(155.84,665,ls),
(90.84,750,o),
(-19.16,670,o),
(45.84,580,c),
(225.84,350,l),
(45.84,110,ls),
(10.84,65,o),
(35.84,0,o),
(90.84,0,cs),
(120.84,0,o),
(140.84,10,o),
(170.84,50,cs),
(310.84,235,l)
);
}
);
width = 621.68;
}
);
unicode = 88;
},
{
glyphname = Y;
kernLeft = T;
kernRight = T;
lastChange = "2026-06-06 17:16:14 +0000";
layers = (
{
anchors = (
{
name = bottom;
pos = (314.71,0);
},
{
name = top;
pos = (314.71,700);
},
{
name = topleft;
pos = (-0.29,700);
}
);
layerId = "FDF8D1BA-B4CE-4A91-B9C2-23316F7DE4E8";
shapes = (
{
closed = 1;
nodes = (
(584.71,580,cs),
(384.71,325,l),
(384.71,75,ls),
(384.71,-25,o),
(244.71,-25,o),
(244.71,75,cs),
(244.71,325,l),
(44.71,580,ls),
(-23.29,667,o),
(92.71,745,o),
(154.71,665,cs),
(314.71,460,l),
(474.71,665,ls),
(537.71,746,o),
(652.71,667,o)
);
}
);
width = 629.53;
}
);
unicode = 89;
},
{
glyphname = Z;
lastChange = "2026-06-03 23:15:07 +0000";
layers = (
{
anchors = (
{
name = bottom;
pos = (313,0);
},
{
name = center;
pos = (313,350);
},
{
name = top;
pos = (313,700);
}
);
layerId = "FDF8D1BA-B4CE-4A91-B9C2-23316F7DE4E8";
shapes = (
{
closed = 1;
nodes = (
(228,140,l),
(523,140,ls),
(629,140,o),
(629,0,o),
(523,0,cs),
(133,0,ls),
(32,0,o),
(11,96,o),
(58,150,cs),
(403,560,l),
(103,560,ls),
(-1,560,o),
(-1,700,o),
(103,700,cs),
(498,700,ls),
(599,700,o),
(624,610,o),
(573,550,cs)
);
}
);
width = 628.5;
}
);
unicode = 90;
},
{
glyphname = Zhook;
lastChange = "2026-06-07 00:23:52 +0000";
layers = (
{
anchors = (
{
name = bottom;
pos = (313,0);
},
{
name = center;
pos = (313,350);
},
{
name = top;
pos = (313,700);
}
);
layerId = "FDF8D1BA-B4CE-4A91-B9C2-23316F7DE4E8";
shapes = (
{
closed = 1;
nodes = (
(605.265,109.617,o),
(576.066,140,o),
(526,140,cs),
(228,140,l),
(573,550,ls),
(624,610,o),
(599,700,o),
(498,700,cs),
(103,700,ls),
(-1,700,o),
(-1,560,o),
(103,560,cs),
(403,560,l),
(58,150,ls),
(11,96,o),
(32,-0.083,o),
(133,-0.083,cs),
(460.79,0.536,l),
(460.79,-38.973,o),
(436.29,-105.775,o),
(351.271,-105.775,cs),
(246.271,-105.775,o),
(246.084,-239.964,o),
(351.271,-239.964,cs),
(495.044,-239.964,o),
(605.265,-155.679,o),
(605.265,69.54,cs)
);
}
);
width = 632.26;
}
);
unicode = 548;
},
{
glyphname = Saltillo;
lastChange = "2026-06-06 20:06:59 +0000";
layers = (
{
anchors = (
{
name = top;
pos = (12.01,680.736);
}
);
layerId = "FDF8D1BA-B4CE-4A91-B9C2-23316F7DE4E8";
shapes = (
{
closed = 1;
nodes = (
(29.835,360.761,o),
(29.835,472.614,cs),
(29.835,635.396,ls),
(29.835,739.401,o),
(170.396,737.803,o),
(170.396,636.675,cs),
(170.396,477.549,ls),
(170.396,353.075,o)
);
}
);
width = 201.36;
}
);
unicode = 42891;
},
{
glyphname = dcaron;
kernLeft = H;
kernRight = O;
lastChange = "2026-06-07 00:39:03 +0000";
layers = (
{
anchors = (
{
name = bottom;
pos = (323,0);
},
{
name = center;
pos = (163,350);
},
{
name = top;
pos = (313,700);
}
);
layerId = "FDF8D1BA-B4CE-4A91-B9C2-23316F7DE4E8";
shapes = (
{
closed = 1;
nodes = (
(570.274,976.162,o),
(477.274,1087.162,o),
(387.274,1001.162,c),
(312.079,929.237,l),
(236.884,1001.162,l),
(146.884,1087.162,o),
(53.884,976.162,o),
(136.884,901.162,c),
(256.884,791.162,l),
(291.272,759.034,o),
(332.885,759.034,o),
(367.274,791.162,c),
(487.274,901.162,l)
);
},
{
ref = D;
}
);
width = 681;
}
);
unicode = 271;
},
{
glyphname = longs;
lastChange = "2026-06-07 00:09:47 +0000";
layers = (
{
layerId = "FDF8D1BA-B4CE-4A91-B9C2-23316F7DE4E8";
shapes = (
{
closed = 1;
nodes = (
(267.311,76,ls),
(267.311,-24,o),
(129.12,-24,o),
(129.12,76,cs),
(129.12,459.362,ls),
(129.12,623.55,o),
(225.053,703.358,o),
(379.776,703.358,cs),
(485.776,703.358,o),
(485.776,567.673,o),
(379.776,567.673,cs),
(294.757,567.673,o),
(267.311,525.171,o),
(267.311,441.057,cs)
);
}
);
width = 600;
}
);
unicode = 383;
},
{
glyphname = tcaron;
kernLeft = T;
kernRight = T;
lastChange = "2026-06-07 00:39:11 +0000";
layers = (
{
anchors = (
{
name = top;
pos = (318.5,1030);
}
);
layerId = "FDF8D1BA-B4CE-4A91-B9C2-23316F7DE4E8";
shapes = (
{
ref = T;
},
{
closed = 1;
nodes = (
(575.774,976.162,o),
(482.774,1087.162,o),
(392.774,1001.162,c),
(317.579,929.237,l),
(242.384,1001.162,l),
(152.384,1087.162,o),
(59.384,976.162,o),
(142.384,901.162,c),
(262.384,791.162,l),
(296.772,759.034,o),
(338.385,759.034,o),
(372.774,791.162,c),
(492.774,901.162,l)
);
}
);
width = 630.5;
}
);
unicode = 357;
},
{
glyphname = ordfeminine;
lastChange = "2026-06-06 19:59:53 +0000";
layers = (
{
layerId = "FDF8D1BA-B4CE-4A91-B9C2-23316F7DE4E8";
shapes = (
{
closed = 1;
nodes = (
(190.543,453.989,o),
(164.969,479.564,o),
(164.969,511,cs),
(164.969,542.439,o),
(190.543,568.017,o),
(221.981,568.017,cs),
(253.419,568.017,o),
(278.997,542.439,o),
(278.997,511,cs),
(278.997,479.564,o),
(253.419,453.989,o),
(221.981,453.989,c)
);
},
{
closed = 1;
nodes = (
(436.914,453.342,o),
(426.36,476.07,o),
(426.36,527.757,c),
(426.36,639.174,l),
(426.36,699.57,o),
(351.227,726.425,o),
(312.47,681.384,c),
(285.462,695.786,o),
(254.665,703.981,o),
(221.98,703.981,cs),
(115.571,703.981,o),
(29.004,617.409,o),
(29.004,511,cs),
(29.004,404.592,o),
(115.571,318.024,o),
(221.98,318.024,cs),
(270.64,318.024,o),
(315.118,336.165,o),
(349.099,365.99,c),
(373.174,343.87,o),
(410.857,323.713,o),
(456.09,323.713,cs),
(491.886,323.713,o),
(520.905,352.727,o),
(520.905,388.527,cs),
(520.905,424.319,o),
(491.886,453.342,o),
(456.09,453.342,cs)
);
}
);
width = 546.91;
}
);
unicode = 170;
},
{
glyphname = ordmasculine;
lastChange = "2026-06-06 19:14:56 +0000";
layers = (
{
layerId = "FDF8D1BA-B4CE-4A91-B9C2-23316F7DE4E8";
shapes = (
{
closed = 1;
nodes = (
(190.541,570.016,o),
(164.967,544.438,o),
(164.967,513,cs),
(164.967,481.563,o),
(190.541,455.987,o),
(221.979,455.987,cs),
(253.417,455.987,o),
(278.995,481.563,o),
(278.995,513,cs),
(278.995,544.438,o),
(253.417,570.016,o),
(221.979,570.016,cs)
);
},
{
closed = 1;
nodes = (
(115.569,320.022,o),
(29.002,406.592,o),
(29.002,513,cs),
(29.002,619.411,o),
(115.569,705.981,o),
(221.978,705.981,cs),
(328.387,705.981,o),
(414.958,619.411,o),
(414.958,513,cs),
(414.958,406.592,o),
(328.387,320.022,o),
(221.978,320.022,cs)
);
}
);
width = 443.96;
}
);
unicode = 186;
},
{
glyphname = "Be-cy";
lastChange = "2026-06-03 23:15:08 +0000";
layers = (
{
anchors = (
{
name = bottom;
pos = (263,0);
},
{
name = center;
pos = (263,350);
},
{
name = top;
pos = (263,700);
},
{
name = topright;
pos = (543,700);
}
);
layerId = "FDF8D1BA-B4CE-4A91-B9C2-23316F7DE4E8";
shapes = (
{
closed = 1;
nodes = (
(448,0,o),
(523,105,o),
(523,205,cs),
(523,310,o),
(448,415,o),
(308,415,cs),
(178,415,l),
(178,560,l),
(423,560,ls),
(523,560,o),
(523,700,o),
(423,700,cs),
(133,700,ls),
(78,700,o),
(43,670,o),
(43,610,cs),
(43,95,ls),
(43,35,o),
(73,0,o),
(138,0,cs),
(308,0,ls)
);
},
{
closed = 1;
nodes = (
(408,285,o),
(413,130,o),
(303,130,cs),
(178,130,l),
(178,285,l),
(303,285,ls)
);
}
);
width = 549;
}
);
unicode = 1041;
},
{
glyphname = "Ge-cy";
kernRight = "Ge-cy";
lastChange = "2026-06-06 19:59:53 +0000";
layers = (
{
anchors = (
{
name = bottom;
pos = (278,0);
},
{
name = bottomright;
pos = (113.472,0);
},
{
name = center;
pos = (378,350);
},
{
name = top;
pos = (278,700);
}
);
layerId = "FDF8D1BA-B4CE-4A91-B9C2-23316F7DE4E8";
shapes = (
{
closed = 1;
nodes = (
(133,700,ls),
(76,700,o),
(43,669,o),
(43,610,cs),
(43,75,ls),
(43,-23,o),
(183,-23,o),
(183,75,cs),
(183,560,l),
(458,560,ls),
(559,560,o),
(559,700,o),
(458,700,cs)
);
}
);
width = 557.75;
}
);
unicode = 1043;
},
{
glyphname = "Geupturn-cy";
kernRight = "Ge-cy";
lastChange = "2026-06-06 12:32:58 +0000";
layers = (
{
anchors = (
{
name = bottom;
pos = (263.08,0);
},
{
name = bottomright;
pos = (513.08,0);
},
{
name = center;
pos = (263.08,355);
},
{
name = top;
pos = (263.08,875);
}
);
layerId = "FDF8D1BA-B4CE-4A91-B9C2-23316F7DE4E8";
shapes = (
{
closed = 1;
nodes = (
(398.08,700,l),
(133.08,700,ls),
(76.08,700,o),
(41.08,669,o),
(43.08,610,cs),
(43.08,75,ls),
(41.08,-26,o),
(181.08,-26,o),
(183.08,75,cs),
(183.08,560,l),
(453.08,560,ls),
(515.08,560,o),
(538.08,601,o),
(538.08,655,cs),
(538.08,720,ls),
(538.08,819,o),
(398.08,819,o),
(398.08,720,cs)
);
}
);
width = 562.08;
}
);
unicode = 1168;
},
{
glyphname = "Gestroke-cy";
kernLeft = Lslash;
lastChange = "2026-06-06 17:06:07 +0000";
layers = (
{
anchors = (
{
name = bottom;
pos = (370.75,0);
},
{
name = top;
pos = (370.75,700);
}
);
layerId = "FDF8D1BA-B4CE-4A91-B9C2-23316F7DE4E8";
shapes = (
{
closed = 1;
nodes = (
(640.75,560,o),
(640.75,700,o),
(540.75,700,cs),
(225.75,700,ls),
(154.75,700,o),
(130.75,667,o),
(130.75,605,cs),
(130.75,419,l),
(104.25,419,ls),
(-2.75,419,o),
(-2.75,281,o),
(104.25,281,cs),
(130.75,281,l),
(130.75,75,ls),
(130.75,-20,o),
(265.75,-25,o),
(265.75,75,cs),
(265.75,280,l),
(500.75,280,ls),
(600.75,280,o),
(600.75,420,o),
(500.75,420,cs),
(265.75,420,l),
(265.75,560,l),
(540.75,560,ls)
);
}
);
width = 639.75;
}
);
unicode = 1170;
},
{
glyphname = "Gemiddlehook-cy";
lastChange = "2026-06-06 20:01:22 +0000";
layers = (
{
anchors = (
{
name = bottom;
pos = (-6.506,-230);
},
{
name = bottomright;
pos = (-71.506,0);
},
{
name = center;
pos = (118.494,350);
},
{
name = ogonekabove;
pos = (-181.506,630);
},
{
name = top;
pos = (-6.506,470);
}
);
layerId = "FDF8D1BA-B4CE-4A91-B9C2-23316F7DE4E8";
shapes = (
{
closed = 1;
nodes = (
(42.988,75,ls),
(42.988,-23,o),
(183.107,-23,o),
(183.107,75,cs),
(183.107,195,ls),
(183.107,292,o),
(234.107,327,o),
(293.107,325,cs),
(325.107,324,o),
(356.107,307,o),
(373.107,280,cs),
(397.107,242,o),
(387.107,180,o),
(343.107,130,cs),
(273.107,50,o),
(356.107,-30,o),
(428.107,20,cs),
(493.107,65,o),
(525.107,145,o),
(528.107,215,cs),
(533.107,325,o),
(463.107,435,o),
(348.107,460,cs),
(295.107,471,o),
(235.107,468,o),
(182.107,440,c),
(182.107,560,l),
(459,560,ls),
(560,560,o),
(560,700,o),
(459,700,cs),
(134,700,ls),
(77,700,o),
(42.988,669,o),
(42.988,610,cs)
);
}
);
width = 561.75;
}
);
unicode = 1172;
},
{
glyphname = "De-cy";
kernLeft = A;
kernRight = "De-cy";
lastChange = "2026-06-06 19:59:53 +0000";
layers = (
{
layerId = "FDF8D1BA-B4CE-4A91-B9C2-23316F7DE4E8";
shapes = (
{
closed = 1;
nodes = (
(208.5,240,o),
(23,205,o),
(23,0,cs),
(23,-63.406,ls),
(23,-165.406,o),
(158,-165.406,o),
(158,-63.406,cs),
(158,0,l),
(620.966,0,l),
(620.966,-63.406,ls),
(620.966,-165.406,o),
(757.966,-165.406,o),
(757.966,-63.406,cs),
(757.966,64.594,ls),
(757.966,109.594,o),
(728.975,138.477,o),
(682.966,138.477,cs),
(638,138.477,l),
(638,605,ls),
(638,660,o),
(598,700,o),
(543,700,cs),
(298,700,ls),
(253,700,o),
(208.5,665,o),
(208.5,615,cs)
);
},
{
closed = 1;
nodes = (
(503,565,l),
(503,135,l),
(218,135,l),
(312,285,o),
(343,450,o),
(348,565,c)
);
}
);
width = 782.97;
}
);
unicode = 1044;
},
{
glyphname = "Zhe-cy";
lastChange = "2026-06-06 17:14:57 +0000";
layers = (
{
anchors = (
{
name = bottom;
pos = (491.481,0);
},
{
name = bottomleft;
pos = (1.98,0);
},
{
name = bottomright;
pos = (892.692,-1.292);
},
{
name = top;
pos = (491.481,700);
}
);
layerId = "FDF8D1BA-B4CE-4A91-B9C2-23316F7DE4E8";
shapes = (
{
closed = 1;
nodes = (
(561.98,275,l),
(615.98,275,l),
(825.98,35,ls),
(900.98,-50,o),
(1000.98,44,o),
(935.98,120,cs),
(735.98,355,l),
(930.98,580,ls),
(1004.98,666,o),
(890.98,747,o),
(820.98,665,cs),
(615.98,425,l),
(561.98,425,l),
(561.98,626,ls),
(561.98,733.145,o),
(420.98,733.145,o),
(420.98,626,cs),
(420.98,425,l),
(366.98,425,l),
(161.98,665,ls),
(91.98,747,o),
(-22.02,666,o),
(51.98,580,cs),
(246.98,355,l),
(46.98,120,ls),
(-18.02,44,o),
(81.98,-50,o),
(156.98,35,cs),
(366.98,275,l),
(420.98,275,l),
(420.98,72,ls),
(420.98,-33.145,o),
(561.98,-33.145,o),
(561.98,72,cs)
);
}
);
width = 982.96;
}
);
unicode = 1046;
},
{
glyphname = "Ka-cy";
lastChange = "2026-06-06 17:22:09 +0000";
layers = (
{
anchors = (
{
name = bottom;
pos = (303,0);
},
{
name = bottomright;
pos = (513,0);
},
{
name = top;
pos = (303,700);
}
);
layerId = "FDF8D1BA-B4CE-4A91-B9C2-23316F7DE4E8";
shapes = (
{
closed = 1;
nodes = (
(43,-26,o),
(183,-26,o),
(183,77,cs),
(183,275,l),
(238,275,l),
(448,35,ls),
(523,-50,o),
(623,44,o),
(558,120,cs),
(358,355,l),
(553,580,ls),
(627,666,o),
(513,747,o),
(443,665,cs),
(238,425,l),
(183,425,l),
(183,624,ls),
(183,727,o),
(43,727,o),
(43,624,c),
(43,77,l)
);
}
);
width = 604.98;
}
);
unicode = 1050;
},
{
glyphname = "El-cy";
kernLeft = "El-cy";
lastChange = "2026-06-06 19:59:53 +0000";
layers = (
{
anchors = (
{
name = bottom;
pos = (383,0);
},
{
name = bottomright;
pos = (654.235,0);
}
);
layerId = "FDF8D1BA-B4CE-4A91-B9C2-23316F7DE4E8";
shapes = (
{
closed = 1;
nodes = (
(223.004,291.925,ls),
(211.498,188.369,o),
(179.716,134.856,o),
(102.79,134.856,cs),
(-6.247,134.856,o),
(1.79,-1,o),
(102.79,-1,cs),
(270.79,2,o),
(333.727,102.262,o),
(352.79,250,cs),
(392.79,560,l),
(587.79,560,l),
(587.79,70,ls),
(587.79,-26.005,o),
(722.79,-21.005,o),
(722.79,70,cs),
(722.79,605,ls),
(722.79,669.008,o),
(696.79,700,o),
(627.79,700,cs),
(352.79,700,ls),
(281.79,700,o),
(264.858,668.616,o),
(257.79,605,cs)
);
}
);
width = 765.79;
}
);
unicode = 1051;
},
{
glyphname = "En-cy";
lastChange = "2026-06-06 19:59:53 +0000";
layers = (
{
anchors = (
{
name = bottom;
pos = (108,0);
},
{
name = bottomright;
pos = (542.985,0);
},
{
name = center;
pos = (328,525);
},
{
name = top;
pos = (328,700);
},
{
name = topleft;
pos = (3,700);
}
);
layerId = "FDF8D1BA-B4CE-4A91-B9C2-23316F7DE4E8";
shapes = (
{
closed = 1;
nodes = (
(613,721,o),
(473,726,o),
(473,625,cs),
(473,420,l),
(183,420,l),
(183,625,ls),
(183,723,o),
(43,723,o),
(43,625,cs),
(43,75,ls),
(43,-25,o),
(183,-25,o),
(183,75,cs),
(183,280,l),
(473,280,l),
(473,75,ls),
(473,-25,o),
(613,-25,o),
(613,75,cs),
(613,625,ls)
);
}
);
width = 656;
}
);
unicode = 1053;
},
{
glyphname = "Pe-cy";
lastChange = "2026-06-06 17:28:05 +0000";
layers = (
{
anchors = (
{
name = bottom;
pos = (328,0);
},
{
name = bottomright;
pos = (542.406,1);
},
{
name = top;
pos = (328,700);
}
);
layerId = "FDF8D1BA-B4CE-4A91-B9C2-23316F7DE4E8";
shapes = (
{
closed = 1;
nodes = (
(469,560,l),
(469,80,ls),
(469,-25,o),
(608,-20,o),
(608,80,cs),
(608,605,ls),
(608,665,o),
(583,700,o),
(513,700,cs),
(138,700,ls),
(68,700,o),
(43,665,o),
(43,605,cs),
(43,80,ls),
(43,-20,o),
(182,-25,o),
(182,80,cs),
(182,560,l)
);
}
);
width = 651;
}
);
unicode = 1055;
},
{
glyphname = "Te-cy";
kernLeft = T;
kernRight = T;
lastChange = "2026-06-06 23:21:52 +0000";
layers = (
{
anchors = (
{
name = bottom;
pos = (320.5,0);
},
{
name = bottomright;
pos = (316.01,0);
},
{
name = center;
pos = (318.5,350);
},
{
name = top;
pos = (318.5,700);
}
);
layerId = "FDF8D1BA-B4CE-4A91-B9C2-23316F7DE4E8";
shapes = (
{
closed = 1;
nodes = (
(103.5,700,ls),
(-2.5,700,o),
(-2.5,560,o),
(103.5,560,cs),
(243.5,560,l),
(243.5,80,ls),
(243.5,-27,o),
(388.5,-27,o),
(388.5,80,cs),
(388.5,560,l),
(528.5,560,ls),
(632.5,560,o),
(632.5,700,o),
(528.5,700,cs)
);
}
);
width = 630.5;
}
);
unicode = 1058;
},
{
glyphname = "U-cy";
kernLeft = W;
kernRight = V;
lastChange = "2026-06-06 18:08:50 +0000";
layers = (
{
anchors = (
{
name = bottom;
pos = (296.36,0);
},
{
name = top;
pos = (306.36,700);
}
);
layerId = "FDF8D1BA-B4CE-4A91-B9C2-23316F7DE4E8";
shapes = (
{
closed = 1;
nodes = (
(496.36,750,o),
(446.36,640,cs),
(411.36,563,o),
(319.36,394,o),
(311.36,370,c),
(176.36,640,ls),
(119.36,753,o),
(-17.64,681,o),
(36.36,575,cs),
(226.36,200,l),
(207.36,169,o),
(192.36,139,o),
(186.36,125,cs),
(127.36,17,o),
(266.36,-44,o),
(321.36,50,cs),
(377.36,163,o),
(537.36,492,o),
(581.36,575,cs),
(634.36,686,o)
);
}
);
width = 617.28;
}
);
unicode = 1059;
},
{
glyphname = "Ef-cy";
kernLeft = O;
lastChange = "2026-06-06 19:51:48 +0000";
layers = (
{
layerId = "FDF8D1BA-B4CE-4A91-B9C2-23316F7DE4E8";
shapes = (
{
closed = 1;
nodes = (
(411.01,495,l),
(483.01,470,o),
(536.01,416,o),
(536.01,355,cs),
(536.01,289,o),
(483.01,235,o),
(411.01,215,c)
);
},
{
closed = 1;
nodes = (
(151.01,416,o),
(202.01,470,o),
(276.01,495,c),
(276.01,215,l),
(202.01,235,o),
(151.01,289,o),
(151.01,355,cs)
);
},
{
closed = 1;
nodes = (
(656.01,485,o),
(555.01,596,o),
(411.01,620,c),
(411.01,635,ls),
(411.01,730,o),
(276.01,730,o),
(276.01,635,cs),
(276.01,620,l),
(130.01,596,o),
(26.01,485,o),
(26.01,355,cs),
(26.01,220,o),
(130.01,109,o),
(276.01,80,c),
(276.01,65,ls),
(276.01,-23,o),
(411.01,-23,o),
(411.01,65,cs),
(411.01,80,l),
(555.01,109,o),
(656.01,220,o),
(656.01,355,cs)
);
}
);
width = 682.04;
}
);
unicode = 1060;
},
{
glyphname = "Tse-cy";
kernRight = "De-cy";
lastChange = "2026-06-06 20:09:11 +0000";
layers = (
{
anchors = (
{
name = bottom;
pos = (323,0);
},
{
name = bottomright;
pos = (541.6,74);
},
{
name = top;
pos = (323,700);
},
{
name = topleft;
pos = (101.594,626);
}
);
layerId = "FDF8D1BA-B4CE-4A91-B9C2-23316F7DE4E8";
shapes = (
{
closed = 1;
nodes = (
(184.342,140,l),
(184.342,624.986,ls),
(182,724.998,o),
(43,720,o),
(43,625,cs),
(43,95,ls),
(43,35,o),
(68,0,o),
(138,0,c),
(595.671,0,l),
(595.671,-64.045,ls),
(595.671,-166.045,o),
(732.671,-166.045,o),
(732.671,-64.045,cs),
(732.671,63.955,ls),
(732.671,108.955,o),
(703.68,139.838,o),
(657.671,139.838,cs),
(608,139.838,l),
(608,625,ls),
(608,720,o),
(469,725,o),
(469,625,cs),
(469,140,l)
);
}
);
width = 757.67;
}
);
unicode = 1062;
},
{
glyphname = "Che-cy";
kernLeft = "Che-cy";
lastChange = "2026-06-06 19:59:53 +0000";
layers = (
{
anchors = (
{
name = bottom;
pos = (309.4,0);
},
{
name = bottomright;
pos = (493.845,0);
},
{
name = ogonek;
pos = (493.356,75);
},
{
name = top;
pos = (309.4,700);
},
{
name = topleft;
pos = (679.4,700);
}
);
layerId = "FDF8D1BA-B4CE-4A91-B9C2-23316F7DE4E8";
shapes = (
{
closed = 1;
nodes = (
(424.4,505,ls),
(424.4,410,o),
(369.387,375,o),
(297.4,375,cs),
(215.459,375,o),
(164.4,428,o),
(164.4,515,cs),
(164.4,586,o),
(165.4,614,o),
(164.4,625,cs),
(164.4,726,o),
(28.9,726,o),
(28.9,625,cs),
(28.9,476,o),
(30.4,395.805,o),
(99.4,315,cs),
(162.355,241.274,o),
(300.545,211.75,o),
(424.4,260,c),
(424.4,75,ls),
(424.4,-24,o),
(565.4,-24,o),
(565.4,75,cs),
(565.4,625,ls),
(565.4,726,o),
(424.4,726,o),
(424.4,625,cs)
);
}
);
width = 607.41;
}
);
unicode = 1063;
},
{
glyphname = "Sha-cy";
lastChange = "2026-06-06 19:59:53 +0000";
layers = (
{
anchors = (
{
name = bottom;
pos = (443,0);
},
{
name = bottomright;
pos = (771.568,0);
},
{
name = top;
pos = (443,700);
}
);
layerId = "FDF8D1BA-B4CE-4A91-B9C2-23316F7DE4E8";
shapes = (
{
closed = 1;
nodes = (
(178,625,ls),
(178,725,o),
(43,720,o),
(43,625,cs),
(43,95,ls),
(43,35,o),
(68,0,o),
(138,0,cs),
(743,0,ls),
(813,0,o),
(838,35,o),
(838,95,cs),
(838,625,ls),
(838,720,o),
(703,725,o),
(703,625,cs),
(703,140,l),
(508,140,l),
(508,625,ls),
(508,725,o),
(373,725,o),
(373,625,cs),
(373,140,l),
(178,140,l)
);
}
);
width = 881;
}
);
unicode = 1064;
},
{
glyphname = "Shcha-cy";
kernRight = "De-cy";
lastChange = "2026-06-06 19:59:53 +0000";
layers = (
{
anchors = (
{
name = bottom;
pos = (443,0);
},
{
name = bottomright;
pos = (771.568,0);
},
{
name = top;
pos = (443,700);
}
);
layerId = "FDF8D1BA-B4CE-4A91-B9C2-23316F7DE4E8";
shapes = (
{
closed = 1;
nodes = (
(178,625,ls),
(178,725,o),
(43,720,o),
(43,625,cs),
(43,95,ls),
(43,35,o),
(68,0,o),
(138,0,c),
(823.276,0,l),
(823.276,-63.857,ls),
(823.276,-165.857,o),
(960.276,-165.857,o),
(960.276,-63.857,cs),
(960.276,64.143,ls),
(960.276,109.143,o),
(931.285,138.026,o),
(885.276,138.026,cs),
(838,138.026,l),
(838,625,ls),
(838,720,o),
(703,725,o),
(703,625,cs),
(703,140,l),
(508,140,l),
(508,625,ls),
(508,725,o),
(373,725,o),
(373,625,cs),
(373,140,l),
(178,140,l)
);
}
);
width = 985.28;
}
);
unicode = 1065;
},
{
glyphname = "Dzhe-cy";
lastChange = "2026-06-06 17:29:15 +0000";
layers = (
{
anchors = (
{
name = bottom;
pos = (325.5,0);
},
{
name = top;
pos = (325.5,700);
}
);
layerId = "FDF8D1BA-B4CE-4A91-B9C2-23316F7DE4E8";
shapes = (
{
closed = 1;
nodes = (
(182,625,ls),
(182,725,o),
(43,720,o),
(43,625,cs),
(43,95,ls),
(43,35,o),
(68,0,o),
(138,0,c),
(513,0,l),
(583,0,o),
(608,35,o),
(608,95,cs),
(608,625,ls),
(608,720,o),
(469,725,o),
(469,625,cs),
(469,140,l),
(182,140,l)
);
},
{
pos = (218.454,0);
ref = "descender-cy.middle";
}
);
width = 651;
}
);
unicode = 1039;
},
{
glyphname = "Softsign-cy";
kernRight = Softsign;
lastChange = "2026-06-06 17:08:39 +0000";
layers = (
{
anchors = (
{
name = bottom;
pos = (253,0);
},
{
name = top;
pos = (253,700);
}
);
layerId = "FDF8D1BA-B4CE-4A91-B9C2-23316F7DE4E8";
shapes = (
{
closed = 1;
nodes = (
(138,0,ls),
(71,0,o),
(43,35,o),
(43,95,cs),
(43,625,ls),
(43,729,o),
(178,725,o),
(178,625,cs),
(178,415,l),
(308,415,ls),
(449,415,o),
(523,309,o),
(523,205,cs),
(523,105,o),
(449,0,o),
(308,0,cs)
);
},
{
closed = 1;
nodes = (
(178,285,l),
(178,130,l),
(303,130,ls),
(414,130,o),
(410,285,o),
(303,285,cs)
);
}
);
width = 549;
}
);
unicode = 1068;
},
{
glyphname = "Hardsign-cy";
kernRight = Softsign;
lastChange = "2026-06-06 19:59:53 +0000";
layers = (
{
anchors = (
{
name = bottom;
pos = (373.5,0);
},
{
name = top;
pos = (373.5,700);
}
);
layerId = "FDF8D1BA-B4CE-4A91-B9C2-23316F7DE4E8";
shapes = (
{
closed = 1;
nodes = (
(567.5,0,o),
(643,105,o),
(643,205,cs),
(643,310,o),
(567.5,415,o),
(428.5,415,cs),
(298.5,415,l),
(298.5,615,ls),
(297.5,670,o),
(267.5,700,o),
(213.5,700,cs),
(103.5,700,ls),
(-2.5,700,o),
(-2.5,560,o),
(103.5,560,cs),
(163.5,560,l),
(163.5,95,ls),
(163.5,35,o),
(192.5,0,o),
(258.5,0,cs),
(428.5,0,ls)
);
},
{
closed = 1;
nodes = (
(527.5,285,o),
(532.5,130,o),
(423.5,130,cs),
(298.5,130,l),
(298.5,285,l),
(423.5,285,ls)
);
}
);
width = 669.5;
}
);
unicode = 1066;
},
{
glyphname = "Lje-cy";
kernLeft = "El-cy";
kernRight = Softsign;
lastChange = "2026-06-06 19:59:53 +0000";
layers = (
{
anchors = (
{
name = bottom;
pos = (732.47,0);
},
{
name = top;
pos = (732.47,700);
}
);
layerId = "FDF8D1BA-B4CE-4A91-B9C2-23316F7DE4E8";
shapes = (
{
closed = 1;
nodes = (
(587.47,559.072,l),
(587.47,95,ls),
(586.47,40,o),
(616.47,0,o),
(682.47,0,cs),
(852.47,0,ls),
(991.47,0,o),
(1066.97,110,o),
(1066.97,205,cs),
(1066.97,310,o),
(991.47,415,o),
(852.47,415,cs),
(722.47,415,l),
(722.47,610,ls),
(722.47,670,o),
(691.47,700,o),
(627.47,700,c),
(352.793,700,ls),
(281.793,700,o),
(264.862,667.688,o),
(257.793,604.072,cs),
(223.007,290.997,ls),
(211.501,187.441,o),
(179.719,133.928,o),
(102.793,133.928,cs),
(-6.244,133.928,o),
(1.793,-1.928,o),
(102.793,-1.928,cs),
(270.793,1.072,o),
(333.73,101.334,o),
(352.793,249.072,cs),
(392.793,559.072,l)
);
},
{
closed = 1;
nodes = (
(956.47,285,o),
(956.47,130,o),
(847.47,130,cs),
(722.47,130,l),
(722.47,285,l),
(847.47,285,ls)
);
}
);
width = 1093.47;
}
);
unicode = 1033;
},
{
glyphname = "Nje-cy";
kernRight = Softsign;
lastChange = "2026-06-06 16:14:13 +0000";
layers = (
{
anchors = (
{
name = bottom;
pos = (108,0);
},
{
name = center;
pos = (328,525);
},
{
name = top;
pos = (328,700);
},
{
name = topleft;
pos = (3,700);
}
);
layerId = "FDF8D1BA-B4CE-4A91-B9C2-23316F7DE4E8";
shapes = (
{
closed = 1;
nodes = (
(848,0,o),
(923,105,o),
(923,205,cs),
(923,310,o),
(848,415,o),
(708,415,cs),
(578,415,l),
(578,625,ls),
(578,725,o),
(443,730,o),
(443,625,cs),
(443,415,l),
(183,415,l),
(183,625,ls),
(183,725,o),
(43,725,o),
(43,625,cs),
(43,75,ls),
(43,-25,o),
(183,-25,o),
(183,75,cs),
(183,285,l),
(443,285,l),
(443,95,ls),
(443,35,o),
(473,0,o),
(538,0,cs),
(708,0,ls)
);
},
{
closed = 1;
nodes = (
(808,285,o),
(813,130,o),
(703,130,cs),
(578,130,l),
(578,285,l),
(703,285,ls)
);
}
);
width = 949;
}
);
unicode = 1034;
},
{
glyphname = "Tshe-cy";
kernLeft = T;
lastChange = "2026-06-06 20:01:22 +0000";
layers = (
{
anchors = (
{
name = bottom;
pos = (193.5,-230);
},
{
name = bottomright;
pos = (128.5,0);
},
{
name = center;
pos = (318.5,350);
},
{
name = ogonekabove;
pos = (18.5,630);
},
{
name = top;
pos = (193.5,470);
}
);
layerId = "FDF8D1BA-B4CE-4A91-B9C2-23316F7DE4E8";
shapes = (
{
closed = 1;
nodes = (
(382.5,195,ls),
(382.5,290,o),
(437.5,325,o),
(498.5,325,cs),
(562.5,325,o),
(613,270,o),
(613,185,cs),
(613,115,o),
(613,85,o),
(613,75,cs),
(613,-25,o),
(748,-25,o),
(748,75,cs),
(748,225,o),
(742.5,305,o),
(678.5,385,cs),
(622.5,450,o),
(487.5,495,o),
(383.5,440,c),
(383.5,560,l),
(528.5,560,ls),
(632.5,560,o),
(632.5,700,o),
(528.5,700,cs),
(103.5,700,ls),
(-2.5,700,o),
(-2.5,560,o),
(103.5,560,cs),
(243.5,560,l),
(243.5,75,ls),
(243.5,-25,o),
(382.5,-25,o),
(382.5,75,cs)
);
}
);
width = 777.5;
}
);
unicode = 1035;
},
{
glyphname = "Yu-cy";
kernRight = O;
lastChange = "2026-06-06 19:56:14 +0000";
layers = (
{
anchors = (
{
name = top;
pos = (473,700);
}
);
layerId = "FDF8D1BA-B4CE-4A91-B9C2-23316F7DE4E8";
shapes = (
{
closed = 1;
nodes = (
(478.004,140.019,o),
(388.004,240.996,o),
(388.004,360,cs),
(388.004,479.004,o),
(478.004,575,o),
(583.004,575,cs),
(692.004,575,o),
(783.004,479,o),
(783.004,360,cs),
(783.004,241,o),
(692.004,140.019,o),
(583.004,140.019,cs)
);
},
{
closed = 1;
nodes = (
(425.863,715,o),
(292.09,594.4,o),
(260.208,435,c),
(183.004,435,l),
(183.004,630,ls),
(183.004,728,o),
(43.004,728,o),
(43.004,630,cs),
(43.004,80,ls),
(43.004,-20,o),
(183.004,-20,o),
(183.004,80,cs),
(183.004,285,l),
(260.756,285,l),
(293.468,124.492,o),
(425.785,0,o),
(583.004,0,cs),
(768.004,0,o),
(918.004,165,o),
(918.004,360,cs),
(918.004,555,o),
(768.004,715,o),
(583.004,715,cs)
);
}
);
width = 945;
}
);
unicode = 1070;
},
{
glyphname = "Dje-cy";
lastChange = "2026-06-03 23:15:07 +0000";
layers = (
{
anchors = (
{
name = bottom;
pos = (192,-230);
},
{
name = bottomright;
pos = (127,0);
},
{
name = center;
pos = (317,350);
},
{
name = ogonekabove;
pos = (17,630);
},
{
name = top;
pos = (192,470);
}
);
layerId = "FDF8D1BA-B4CE-4A91-B9C2-23316F7DE4E8";
shapes = (
{
closed = 1;
nodes = (
(732,325,o),
(662,435,o),
(547,460,cs),
(494,471,o),
(435,468,o),
(382,440,c),
(382,560,l),
(527,560,ls),
(633,560,o),
(633,700,o),
(527,700,cs),
(102,700,ls),
(-2,700,o),
(-2,560,o),
(102,560,cs),
(242,560,l),
(242,75,ls),
(242,-23,o),
(382,-23,o),
(382,75,cs),
(382,195,ls),
(382,292,o),
(433,327,o),
(492,325,cs),
(524,324,o),
(555,307,o),
(572,280,cs),
(596,242,o),
(586,180,o),
(542,130,cs),
(472,50,o),
(555,-30,o),
(627,20,cs),
(692,65,o),
(724,145,o),
(727,215,cs)
);
}
);
width = 753.25;
}
);
unicode = 1026;
},
{
glyphname = "Yusbig-cy";
kernLeft = X;
kernRight = X;
lastChange = "2026-06-06 19:56:35 +0000";
layers = (
{
anchors = (
{
name = bottom;
pos = (461.731,0);
},
{
name = bottomleft;
pos = (-27.77,0);
},
{
name = bottomright;
pos = (862.942,-1.292);
},
{
name = center;
pos = (614.47,350);
},
{
name = top;
pos = (461.731,700);
}
);
layerId = "FDF8D1BA-B4CE-4A91-B9C2-23316F7DE4E8";
shapes = (
{
closed = 1;
nodes = (
(532.23,-33.258,o),
(532.23,72,cs),
(532.23,275,l),
(556.23,275,l),
(766.23,35,ls),
(841.23,-50,o),
(940.772,43.61,o),
(876.23,120,cs),
(669.23,365,l),
(834.47,550,ls),
(886.927,608.73,o),
(860.47,700,o),
(759.47,700,cs),
(161.775,700,ls),
(60.775,700,o),
(33.795,608.259,o),
(86.775,550,cs),
(255.015,365,l),
(45.015,120,ls),
(-20.067,44.071,o),
(80.015,-50,o),
(155.015,35,cs),
(365.015,275,l),
(389.015,275,l),
(389.015,72,ls),
(389.015,-33.258,o)
);
},
{
closed = 1;
nodes = (
(256.775,563,l),
(664.47,563,l),
(532.23,425,l),
(389.015,425,l)
);
}
);
width = 921.02;
}
);
unicode = 1130;
},
{
glyphname = "Fita-cy";
kernLeft = O;
kernRight = O;
lastChange = "2026-06-06 19:56:59 +0000";
layers = (
{
anchors = (
{
name = bottom;
pos = (356.94,15);
},
{
name = center;
pos = (361.94,350);
},
{
name = ogonek;
pos = (356.94,65);
},
{
name = top;
pos = (356.94,715);
},
{
name = topleft;
pos = (26.94,705);
},
{
name = topright;
pos = (686.94,700);
}
);
layerId = "FDF8D1BA-B4CE-4A91-B9C2-23316F7DE4E8";
shapes = (
{
closed = 1;
nodes = (
(271.633,133.263,o),
(198.352,192.225,o),
(173.418,281.374,c),
(173.418,281.374,o),
(191.502,292.089,o),
(215.931,298.686,cs),
(315.256,325.51,o),
(361.804,264.541,o),
(461.551,264.541,cs),
(502.514,264.541,o),
(546.631,279.548,o),
(546.631,279.548,c),
(529.161,191.558,o),
(444.861,133.263,o),
(357.008,133.263,cs)
);
},
{
closed = 1;
nodes = (
(176.008,709.251,o),
(27.008,549.251,o),
(27.008,354.251,c),
(27.008,159.251,o),
(176.008,-5.749,o),
(357.008,-5.749,c),
(542.008,-5.749,o),
(692.008,159.251,o),
(692.008,354.251,c),
(692.008,549.251,o),
(542.008,709.251,o),
(357.008,709.251,c)
);
},
{
closed = 1;
nodes = (
(448.416,569.505,o),
(521.697,510.542,o),
(546.631,421.393,c),
(546.631,421.393,o),
(528.547,410.678,o),
(504.118,404.081,cs),
(404.793,377.257,o),
(358.245,438.226,o),
(258.498,438.226,cs),
(217.535,438.226,o),
(173.418,423.219,o),
(173.418,423.219,c),
(190.888,511.209,o),
(275.188,569.505,o),
(363.041,569.505,cs)
);
}
);
width = 719.01;
}
);
unicode = 1138;
},
{
glyphname = "Izhitsa-cy";
kernLeft = V;
kernRight = T;
lastChange = "2026-06-06 19:57:18 +0000";
layers = (
{
anchors = (
{
name = bottom;
pos = (330.75,0);
},
{
name = top;
pos = (330.75,700);
}
);
layerId = "FDF8D1BA-B4CE-4A91-B9C2-23316F7DE4E8";
shapes = (
{
closed = 1;
nodes = (
(644.915,568.119,o),
(614.197,545.549,o),
(594.795,506.48,c),
(430.765,80,l),
(388.584,-29.674,o),
(270.896,-24.34,o),
(230.765,80,cs),
(30.765,600,ls),
(-7.607,699.768,o),
(128.394,742.353,o),
(160.765,650,cs),
(330.765,165,l),
(471.465,566.41,ls),
(510.054,676.502,o),
(617.018,700.994,o),
(691.965,700.994,cs),
(792.963,700.994,o),
(801.005,568.119,o),
(691.965,568.119,cs)
);
}
);
width = 794.76;
}
);
unicode = 1140;
},
{
glyphname = "Zhedescender-cy";
kernRight = "De-cy";
lastChange = "2026-06-06 19:57:29 +0000";
layers = (
{
anchors = (
{
name = bottom;
pos = (491.481,0);
},
{
name = bottomleft;
pos = (1.98,0);
},
{
name = bottomright;
pos = (892.692,-1.292);
},
{
name = top;
pos = (491.481,700);
}
);
layerId = "FDF8D1BA-B4CE-4A91-B9C2-23316F7DE4E8";
shapes = (
{
closed = 1;
nodes = (
(561.98,275,l),
(615.98,275,l),
(825.98,35,ls),
(838.308,21.029,o),
(861.024,-1.266,o),
(899.873,-1.266,cs),
(944.4,-1.266,l),
(944.4,-65.149,ls),
(944.4,-167.149,o),
(1081.4,-167.149,o),
(1081.4,-65.149,cs),
(1081.4,62.851,ls),
(1081.4,107.851,o),
(1052.408,136.734,o),
(1006.4,136.734,cs),
(921.739,136.734,l),
(735.98,355,l),
(930.98,580,ls),
(1004.98,666,o),
(890.98,747,o),
(820.98,665,cs),
(615.98,425,l),
(561.98,425,l),
(561.98,626,ls),
(561.98,733.145,o),
(420.98,733.145,o),
(420.98,626,cs),
(420.98,425,l),
(366.98,425,l),
(161.98,665,ls),
(91.98,747,o),
(-22.02,666,o),
(51.98,580,cs),
(246.98,355,l),
(46.98,120,ls),
(-18.02,44,o),
(81.98,-50,o),
(156.98,35,cs),
(366.98,275,l),
(420.98,275,l),
(420.98,72,ls),
(420.98,-33.145,o),
(561.98,-33.145,o),
(561.98,72,cs)
);
}
);
width = 1106.4;
}
);
unicode = 1174;
},
{
glyphname = "Kaverticalstroke-cy";
kernRight = X;
lastChange = "2026-06-06 17:22:09 +0000";
layers = (
{
anchors = (
{
name = bottom;
pos = (303,0);
},
{
name = bottomright;
pos = (577.593,55);
},
{
name = top;
pos = (303,700);
}
);
layerId = "FDF8D1BA-B4CE-4A91-B9C2-23316F7DE4E8";
shapes = (
{
closed = 1;
nodes = (
(43,625,l),
(43,728,o),
(183,728,o),
(183,625,cs),
(183,426,l),
(378,426,l),
(583,666,ls),
(653.943,749.055,o),
(761.778,660.36,o),
(693,581,cs),
(498,356,l),
(698,121,ls),
(763,45,o),
(663,-49,o),
(588,36,cs),
(378,276,l),
(183,276,l),
(183,78,ls),
(183,-25,o),
(43,-25,o),
(43,78,c)
);
},
{
angle = -90;
pos = (-45.663,638.75);
ref = hyphen;
}
);
width = 744.98;
}
);
unicode = 1180;
},
{
glyphname = "Kastroke-cy";
kernLeft = Lslash;
kernRight = X;
lastChange = "2026-06-06 23:20:08 +0000";
layers = (
{
anchors = (
{
name = bottom;
pos = (371.58,0);
},
{
name = bottomright;
pos = (581.58,0);
},
{
name = top;
pos = (185.306,611.643);
}
);
layerId = "FDF8D1BA-B4CE-4A91-B9C2-23316F7DE4E8";
shapes = (
{
closed = 1;
nodes = (
(111.58,-26,o),
(251.58,-26,o),
(251.58,77,cs),
(251.58,275,l),
(306.58,275,l),
(516.58,35,ls),
(591.58,-50,o),
(691.58,44,o),
(626.58,120,cs),
(426.58,355,l),
(621.58,580,ls),
(695.58,666,o),
(581.58,747,o),
(511.58,665,cs),
(306.58,425,l),
(251.58,425,l),
(251.58,471.014,l),
(266.254,471.014,ls),
(375.254,471.014,o),
(375.254,609.014,o),
(266.254,609.014,cs),
(251.58,609.014,l),
(251.58,624,ls),
(251.58,727,o),
(111.58,727,o),
(111.58,624,cs),
(111.58,609.014,l),
(96.254,609.014,ls),
(-10.746,609.014,o),
(-10.746,471.014,o),
(96.254,471.014,cs),
(111.58,471.014,l),
(111.58,77,ls)
);
}
);
width = 673.56;
}
);
unicode = 1182;
},
{
glyphname = "Kabashkir-cy";
kernRight = X;
lastChange = "2026-06-06 19:59:53 +0000";
layers = (
{
anchors = (
{
name = bottom;
pos = (635.66,0);
},
{
name = bottomright;
pos = (844.036,65.186);
},
{
name = top;
pos = (635.66,700);
}
);
layerId = "FDF8D1BA-B4CE-4A91-B9C2-23316F7DE4E8";
shapes = (
{
closed = 1;
nodes = (
(99.749,558.875,ls),
(-1.251,558.875,o),
(-1.251,698.875,o),
(99.749,698.875,cs),
(424.749,698.875,ls),
(481.749,698.875,o),
(515.749,667.875,o),
(515.749,608.875,cs),
(515.749,425,l),
(570.66,425,l),
(775.66,665,ls),
(845.66,747,o),
(959.66,666,o),
(885.66,580,cs),
(690.66,355,l),
(890.66,120,ls),
(955.66,44,o),
(855.66,-50,o),
(780.66,35,cs),
(570.66,275,l),
(515.66,275,l),
(515.66,77,ls),
(515.66,-26,o),
(375.205,-26,o),
(375.205,77,cs),
(375.205,558.875,l)
);
}
);
width = 937.64;
}
);
unicode = 1184;
},
{
glyphname = "Endescender-cy";
kernRight = "De-cy";
lastChange = "2026-06-06 19:59:53 +0000";
layers = (
{
anchors = (
{
name = bottom;
pos = (108,0);
},
{
name = bottomright;
pos = (542.985,0);
},
{
name = center;
pos = (328,525);
},
{
name = top;
pos = (328,700);
},
{
name = topleft;
pos = (3,700);
}
);
layerId = "FDF8D1BA-B4CE-4A91-B9C2-23316F7DE4E8";
shapes = (
{
closed = 1;
nodes = (
(613,721,o),
(473,726,o),
(473,625,cs),
(473,420,l),
(183,420,l),
(183,625,ls),
(183,723,o),
(43,723,o),
(43,625,cs),
(43,75,ls),
(43,-25,o),
(183,-25,o),
(183,75,cs),
(183,280,l),
(473,280,l),
(473,75,l),
(474.472,16.495,o),
(514.347,-1.461,o),
(546.525,0.085,c),
(594.693,0.085,l),
(594.693,-63.857,ls),
(594.693,-165.857,o),
(731.693,-165.857,o),
(731.693,-63.857,cs),
(731.693,64.143,ls),
(731.693,109.143,o),
(702.701,138.026,o),
(656.693,138.026,cs),
(613,138.026,l),
(613,625,ls)
);
}
);
width = 756.69;
}
);
unicode = 1186;
},
{
glyphname = "EnGe-cy";
kernRight = "Ge-cy";
lastChange = "2026-06-06 19:59:53 +0000";
layers = (
{
layerId = "FDF8D1BA-B4CE-4A91-B9C2-23316F7DE4E8";
shapes = (
{
closed = 1;
nodes = (
(562.651,700,ls),
(505.651,700,o),
(472.651,669,o),
(472.651,610,cs),
(472.651,420,l),
(183,420,l),
(183,625,ls),
(183,723,o),
(43,723,o),
(43,625,cs),
(43,75,ls),
(43,-25,o),
(183,-25,o),
(183,75,cs),
(183,280,l),
(473,280,l),
(473,75,ls),
(473,-25,o),
(613.072,-25,o),
(613.072,75,cs),
(613.072,560,l),
(887.651,560,ls),
(988.651,560,o),
(988.651,700,o),
(887.651,700,cs)
);
}
);
width = 987.4;
}
);
unicode = 1188;
},
{
glyphname = "Pemiddlehook-cy";
kernRight = Softsign;
lastChange = "2026-06-06 19:59:53 +0000";
layers = (
{
anchors = (
{
name = bottom;
pos = (328,0);
},
{
name = bottomright;
pos = (542.406,1);
},
{
name = top;
pos = (328,700);
}
);
layerId = "FDF8D1BA-B4CE-4A91-B9C2-23316F7DE4E8";
shapes = (
{
closed = 1;
nodes = (
(662.533,468,o),
(721.533,471,o),
(774.533,460,cs),
(889.533,435,o),
(959.533,325,o),
(954.533,215,cs),
(951.533,145,o),
(919.533,65,o),
(854.533,20,cs),
(782.533,-30,o),
(699.533,50,o),
(769.533,130,cs),
(813.533,180,o),
(823.533,242,o),
(799.533,280,cs),
(782.533,307,o),
(751.533,324,o),
(719.533,325,cs),
(660.533,327,o),
(609.533,292,o),
(609.533,195,cs),
(609.533,78,ls),
(609.533,-23,o),
(469,-23,o),
(469,78,cs),
(469,560,l),
(182,560,l),
(182,78,ls),
(182,-25,o),
(43,-20,o),
(43,78,cs),
(43,605,ls),
(43,665,o),
(68,700,o),
(138,700,cs),
(513,700,ls),
(583,700,o),
(608,665,o),
(608,605,cs),
(608,440,l)
);
}
);
width = 980.78;
}
);
unicode = 1190;
},
{
glyphname = "Haabkhasian-cy";
kernLeft = O;
lastChange = "2026-06-06 17:59:06 +0000";
layers = (
{
layerId = "FDF8D1BA-B4CE-4A91-B9C2-23316F7DE4E8";
shapes = (
{
closed = 1;
nodes = (
(495.683,429.339,o),
(450.737,386.67,o),
(462.165,321.702,cs),
(468.767,284.164,o),
(502.875,234.778,o),
(535.719,208.728,c),
(566.982,234.524,o),
(601.703,284.404,o),
(608.787,322.359,cs),
(621.092,388.295,o),
(573.987,429.339,o),
(535.719,429.339,cs)
);
},
{
closed = 1;
nodes = (
(651.205,-5,o),
(590.297,11.236,o),
(535.719,40.706,c),
(321.649,-84.752,o),
(27.002,60.053,o),
(27.002,350,cs),
(27.002,545.748,o),
(176.417,705,o),
(360.071,705,cs),
(467.401,705,o),
(467.401,564.753,o),
(360.071,564.753,cs),
(253.748,564.753,o),
(167.249,468.415,o),
(167.249,350,cs),
(167.249,231.586,o),
(253.748,135.247,o),
(360.071,135.247,cs),
(378.972,135.247,o),
(395.899,136.859,o),
(411.851,140.452,c),
(376.982,177.606,o),
(340.757,227.357,o),
(327.462,285.375,cs),
(292.473,438.056,o),
(408.937,558.586,o),
(535.397,558.586,cs),
(670.146,558.586,o),
(777.387,427.617,o),
(743.182,284.715,cs),
(729.747,228.588,o),
(696.111,180.673,o),
(659.602,141.83,c),
(676.68,137.524,o),
(693.941,135.247,o),
(710.723,135.247,cs),
(816.052,135.247,o),
(816.052,-5,o),
(710.723,-5,cs)
);
}
);
width = 813.72;
}
);
unicode = 1192;
},
{
glyphname = "Esdescender-cy";
kernLeft = O;
lastChange = "2026-06-06 19:59:53 +0000";
layers = (
{
layerId = "FDF8D1BA-B4CE-4A91-B9C2-23316F7DE4E8";
shapes = (
{
ref = C;
},
{
closed = 1;
nodes = (
(284.19,117.152,o),
(421.19,117.152,o),
(421.19,15.152,c),
(421.19,-68.731,ls),
(421.19,-170.731,o),
(284.19,-170.731,o),
(284.19,-68.857,c),
(284.19,15.152,ls)
);
}
);
width = 633.24;
}
);
unicode = 1194;
},
{
glyphname = "Tedescender-cy";
kernLeft = T;
lastChange = "2026-06-06 23:36:29 +0000";
layers = (
{
anchors = (
{
name = center;
pos = (318.5,350);
},
{
name = top;
pos = (318.5,700);
}
);
layerId = "FDF8D1BA-B4CE-4A91-B9C2-23316F7DE4E8";
shapes = (
{
closed = 1;
nodes = (
(103.5,700,ls),
(-2.5,700,o),
(-2.5,560,o),
(103.5,560,cs),
(243.5,560,l),
(243.5,80,ls),
(243.5,23.347,o),
(279.869,-0.73,o),
(322.402,0.029,c),
(367.718,0.026,l),
(367.718,-63.857,ls),
(367.718,-165.857,o),
(504.718,-165.857,o),
(504.718,-63.857,cs),
(504.718,64.143,ls),
(504.718,109.143,o),
(475.726,138.026,o),
(429.718,138.026,cs),
(388.5,138.026,l),
(388.5,560,l),
(528.5,560,ls),
(632.5,560,o),
(632.5,700,o),
(528.5,700,cs)
);
}
);
width = 630.5;
}
);
unicode = 1196;
},
{
glyphname = "Tetse-cy";
kernLeft = T;
kernRight = "De-cy";
lastChange = "2026-06-06 19:59:53 +0000";
layers = (
{
anchors = (
{
name = bottom;
pos = (323,0);
},
{
name = bottomright;
pos = (541.6,74);
},
{
name = center;
pos = (117.108,350);
},
{
name = top;
pos = (323,700);
},
{
name = topleft;
pos = (101.594,626);
}
);
layerId = "FDF8D1BA-B4CE-4A91-B9C2-23316F7DE4E8";
shapes = (
{
closed = 1;
nodes = (
(187.108,140,l),
(187.108,560,l),
(327.108,560,ls),
(431.108,560,o),
(431.108,700,o),
(327.108,700,cs),
(-97.892,700,ls),
(-203.892,700,o),
(-203.892,560,o),
(-97.892,560,cs),
(42.108,560,l),
(42.108,80,ls),
(42.108,21.495,o),
(85.458,-5.021,o),
(124.752,0.452,c),
(595.671,0.452,l),
(595.671,-64.045,ls),
(595.671,-166.045,o),
(732.671,-166.045,o),
(732.671,-64.045,cs),
(732.671,63.955,ls),
(732.671,108.955,o),
(703.68,139.838,o),
(657.671,139.838,cs),
(608,139.838,l),
(608,625,ls),
(608,720,o),
(469,725,o),
(469,625,cs),
(469,140,l)
);
}
);
width = 757.67;
}
);
unicode = 1204;
},
{
glyphname = "Cheverticalstroke-cy";
kernLeft = "Che-cy";
lastChange = "2026-06-06 19:42:35 +0000";
layers = (
{
anchors = (
{
name = bottom;
pos = (299.25,0);
},
{
name = bottomright;
pos = (492.04,0);
},
{
name = ogonek;
pos = (491,65.75);
},
{
name = top;
pos = (289.25,700);
},
{
name = topleft;
pos = (649.25,700);
}
);
layerId = "FDF8D1BA-B4CE-4A91-B9C2-23316F7DE4E8";
shapes = (
{
closed = 1;
nodes = (
(226.25,72.75,o),
(364.25,72.75,o),
(364.25,181.75,cs),
(364.25,521.75,ls),
(364.25,628.75,o),
(226.25,628.75,o),
(226.25,521.75,cs),
(226.25,181.75,ls)
);
},
{
ref = "Che-cy";
}
);
width = 607.41;
}
);
unicode = 1208;
},
{
glyphname = "Cheabkhasian-cy";
kernLeft = Lslash;
kernRight = O;
lastChange = "2026-06-06 19:59:53 +0000";
layers = (
{
anchors = (
{
name = bottom;
pos = (593.79,0);
},
{
name = top;
pos = (593.79,700);
}
);
layerId = "FDF8D1BA-B4CE-4A91-B9C2-23316F7DE4E8";
shapes = (
{
closed = 1;
nodes = (
(413.44,426.052,l),
(440.982,507.494,o),
(511.495,565.567,o),
(593.919,565.567,c),
(665.558,565.567,o),
(745.495,517.025,o),
(773.469,426.052,c)
);
},
{
closed = 1;
nodes = (
(905.995,575.876,o),
(764.785,706.26,o),
(593.919,706.26,c),
(434.189,706.26,o),
(300.357,585.425,o),
(268.19,424.76,c),
(263.89,424.76,l),
(207.205,424.76,o),
(159.533,459.413,o),
(159.533,538.268,c),
(159.533,643.268,o),
(30.511,643.268,o),
(26.284,538.268,c),
(20.079,384.394,o),
(115.185,291.196,o),
(265.295,288.275,c),
(293.323,121.287,o),
(429.981,-6,o),
(593.919,-6,c),
(686.761,-6,o),
(776.071,35.852,o),
(823.458,90.847,c),
(899.262,178.822,o),
(802.491,262.214,o),
(717.628,183.17,c),
(693.491,160.687,o),
(649.76,130.694,o),
(593.919,134.694,c),
(507.996,140.849,o),
(434.648,204.112,o),
(409.982,291.358,c),
(823.378,291.358,l),
(893.591,291.358,o),
(927.613,339.039,o),
(922.111,399.317,c)
);
}
);
width = 947.69;
}
);
unicode = 1212;
},
{
glyphname = "Chedescenderabkhasian-cy";
kernLeft = Lslash;
kernRight = O;
lastChange = "2026-06-06 19:59:53 +0000";
layers = (
{
anchors = (
{
name = bottom;
pos = (593.79,0);
},
{
name = top;
pos = (593.79,700);
}
);
layerId = "FDF8D1BA-B4CE-4A91-B9C2-23316F7DE4E8";
shapes = (
{
closed = 1;
nodes = (
(413.44,426.052,l),
(440.982,507.494,o),
(511.495,565.567,o),
(593.919,565.567,cs),
(665.558,565.567,o),
(745.495,517.025,o),
(773.469,426.052,c)
);
},
{
closed = 1;
nodes = (
(905.995,575.876,o),
(764.785,706.26,o),
(593.919,706.26,cs),
(434.189,706.26,o),
(300.357,585.425,o),
(268.19,424.76,c),
(263.89,424.76,ls),
(207.205,424.76,o),
(159.533,459.413,o),
(159.533,538.268,cs),
(159.533,643.268,o),
(30.511,643.268,o),
(26.284,538.268,cs),
(20.079,384.394,o),
(115.185,291.196,o),
(265.295,288.275,c),
(289.344,144.994,o),
(393.368,30.941,o),
(525.98,1.446,c),
(525.98,-63.857,ls),
(525.98,-165.857,o),
(662.98,-165.857,o),
(662.98,-63.731,cs),
(662.98,1.549,l),
(729.205,15.982,o),
(788.041,49.744,o),
(823.458,90.847,cs),
(899.262,178.822,o),
(802.491,262.214,o),
(717.628,183.17,cs),
(693.491,160.687,o),
(649.76,130.694,o),
(593.919,134.694,cs),
(507.996,140.849,o),
(434.648,204.112,o),
(409.982,291.358,c),
(823.378,291.358,ls),
(893.591,291.358,o),
(927.613,339.039,o),
(922.111,399.317,cs)
);
}
);
width = 947.69;
}
);
unicode = 1214;
},
{
glyphname = "Kahook-cy";
lastChange = "2026-06-06 19:59:53 +0000";
layers = (
{
layerId = "FDF8D1BA-B4CE-4A91-B9C2-23316F7DE4E8";
shapes = (
{
closed = 1;
nodes = (
(386.731,382.884,l),
(647.878,265.592,o),
(625.91,-243.363,o),
(230.184,-239.217,cs),
(125.267,-239.217,o),
(125.267,-103.043,o),
(230.184,-103.043,cs),
(479.564,-107.007,o),
(467.894,275.743,o),
(248.004,275.743,cs),
(183.004,275.743,l),
(183.004,77.743,ls),
(183.004,-25.257,o),
(43.004,-25.257,o),
(43.004,77.743,cs),
(43.004,624.743,ls),
(43.004,727.743,o),
(183.004,727.743,o),
(183.004,624.743,cs),
(183.004,425.743,l),
(238.004,425.743,l),
(443.004,665.743,ls),
(513.028,747.722,o),
(625.996,667.6,o),
(553.004,580.743,cs)
);
}
);
width = 601.64;
}
);
unicode = 1219;
},
{
glyphname = "Eltail-cy";
kernRight = "De-cy";
lastChange = "2026-06-06 19:59:53 +0000";
layers = (
{
anchors = (
{
name = bottom;
pos = (383,0);
},
{
name = bottomright;
pos = (654.235,0);
}
);
layerId = "FDF8D1BA-B4CE-4A91-B9C2-23316F7DE4E8";
shapes = (
{
closed = 1;
nodes = (
(223.004,291.925,ls),
(211.498,188.369,o),
(179.716,135.691,o),
(102.79,135.691,cs),
(-6.247,135.691,o),
(1.79,-1,o),
(102.79,-1,cs),
(270.79,2,o),
(333.727,102.262,o),
(352.79,250,cs),
(392.79,560,l),
(587.79,560,l),
(587.79,70,ls),
(587.79,19.749,o),
(624.776,-2.83,o),
(660.029,0.112,c),
(709.587,0.112,l),
(696.685,-56.583,ls),
(675.091,-151.279,o),
(806.194,-178.348,o),
(828.852,-82.077,cs),
(855.935,32.992,ls),
(871.104,97.442,o),
(841.265,137.376,o),
(769.852,137.376,cs),
(722.79,137.376,l),
(722.79,605,ls),
(722.79,669.008,o),
(696.79,700,o),
(627.79,700,cs),
(352.79,700,ls),
(281.79,700,o),
(264.858,668.616,o),
(257.79,605,cs)
);
}
);
width = 883.79;
}
);
unicode = 1221;
},
{
glyphname = "Enhook-cy";
lastChange = "2026-06-06 20:01:22 +0000";
layers = (
{
anchors = (
{
name = bottom;
pos = (108,0);
},
{
name = center;
pos = (328,525);
},
{
name = top;
pos = (328,700);
},
{
name = topleft;
pos = (3,700);
}
);
layerId = "FDF8D1BA-B4CE-4A91-B9C2-23316F7DE4E8";
shapes = (
{
closed = 1;
nodes = (
(613,625,ls),
(613,721,o),
(473,726,o),
(473,625,cs),
(473,420,l),
(183,420,l),
(183,625,ls),
(183,723,o),
(43,723,o),
(43,625,cs),
(43,75,ls),
(43,-25,o),
(183,-25,o),
(183,75,cs),
(183,280,l),
(473,280,l),
(473,12.536,ls),
(473,-46.973,o),
(448.019,-105.776,o),
(363,-105.776,cs),
(258,-105.776,o),
(258,-232.701,o),
(363,-239.964,cs),
(517.628,-250.693,o),
(613,-148.967,o),
(613,2.536,cs)
);
}
);
width = 657;
}
);
unicode = 1223;
},
{
glyphname = "Entail-cy";
kernRight = "De-cy";
lastChange = "2026-06-06 19:59:53 +0000";
layers = (
{
anchors = (
{
name = bottom;
pos = (108,0);
},
{
name = bottomright;
pos = (542.985,0);
},
{
name = center;
pos = (328,525);
},
{
name = top;
pos = (328,700);
},
{
name = topleft;
pos = (3,700);
}
);
layerId = "FDF8D1BA-B4CE-4A91-B9C2-23316F7DE4E8";
shapes = (
{
closed = 1;
nodes = (
(613,721,o),
(473,726,o),
(473,625,cs),
(473,420,l),
(183,420,l),
(183,625,ls),
(183,723,o),
(43,723,o),
(43,625,cs),
(43,75,ls),
(43,-25,o),
(183,-25,o),
(183,75,cs),
(183,280,l),
(473,280,l),
(473,75,ls),
(473,22.695,o),
(511.301,-2.252,o),
(547.836,0.159,cs),
(549.786,0.054,o),
(551.776,0,o),
(598.337,0,c),
(585.434,-56.583,ls),
(563.841,-151.279,o),
(694.943,-178.348,o),
(717.602,-82.077,cs),
(744.685,32.992,ls),
(759.854,97.442,o),
(730.015,137.376,o),
(658.602,137.376,cs),
(613,137.376,l),
(613,625,ls)
);
}
);
width = 772.54;
}
);
unicode = 1225;
},
{
glyphname = "Chekhakassian-cy";
lastChange = "2026-06-06 19:59:53 +0000";
layers = (
{
anchors = (
{
name = bottom;
pos = (183.711,0);
},
{
name = bottomright;
pos = (493.845,0);
},
{
name = ogonek;
pos = (493.356,75);
},
{
name = top;
pos = (309.4,700);
},
{
name = topleft;
pos = (679.4,700);
}
);
layerId = "FDF8D1BA-B4CE-4A91-B9C2-23316F7DE4E8";
shapes = (
{
closed = 1;
nodes = (
(424.4,505,ls),
(424.4,410,o),
(369.387,375,o),
(297.4,375,cs),
(215.459,375,o),
(164.4,428,o),
(164.4,515,cs),
(164.4,586,o),
(165.4,614,o),
(164.4,625,c),
(164.4,726,o),
(30.4,726,o),
(30.4,625,cs),
(27.4,476,o),
(30.4,395.805,o),
(99.4,315,cs),
(162.355,241.274,o),
(300.545,211.75,o),
(424.4,260,c),
(424.4,138.026,l),
(380.137,138.026,ls),
(334.129,138.026,o),
(305.137,109.143,o),
(305.137,64.143,cs),
(305.137,-63.857,ls),
(305.137,-165.857,o),
(442.137,-165.857,o),
(442.137,-63.857,cs),
(442.137,0.026,l),
(486.664,0.026,ls),
(491.841,0.026,o),
(496.757,0.378,o),
(501.411,1.045,cs),
(534.174,3.971,o),
(564.868,28.622,o),
(564.868,75,cs),
(564.868,625,ls),
(564.868,726,o),
(424.4,726,o),
(424.4,625,cs)
);
}
);
width = 607.41;
}
);
unicode = 1227;
},
{
glyphname = "Emtail-cy";
kernLeft = M;
kernRight = "De-cy";
lastChange = "2026-06-06 19:59:53 +0000";
layers = (
{
anchors = (
{
name = bottom;
pos = (437.9,0);
},
{
name = bottomright;
pos = (780.417,0);
},
{
name = top;
pos = (437.9,700);
}
);
layerId = "FDF8D1BA-B4CE-4A91-B9C2-23316F7DE4E8";
shapes = (
{
closed = 1;
nodes = (
(507.923,-23.957,o),
(367.589,-23.957,o),
(342.9,90,cs),
(262.9,455,l),
(162.9,55,ls),
(140.412,-34.952,o),
(-1.1,-9,o),
(27.9,90,c),
(162.9,610,ls),
(190.9,729,o),
(331.572,729,o),
(357.9,610,cs),
(437.9,245,l),
(517.9,610,ls),
(543.934,728.778,o),
(678.9,728.778,o),
(712.9,610,c),
(835.6,137.376,l),
(896.034,137.376,ls),
(967.447,137.376,o),
(997.286,97.442,o),
(982.117,32.992,cs),
(955.034,-82.077,ls),
(932.375,-178.348,o),
(801.273,-151.279,o),
(822.866,-56.583,cs),
(835.769,0,l),
(791.238,0,ls),
(781.524,0,o),
(772.73,1.232,o),
(764.856,3.464,cs),
(741.419,8.443,o),
(720.378,25.088,o),
(712.9,55,cs),
(612.9,455,l),
(532.9,90,ls)
);
}
);
width = 1009.97;
}
);
unicode = 1229;
},
{
glyphname = "Dzeabkhasian-cy";
lastChange = "2026-06-07 00:18:59 +0000";
layers = (
{
anchors = (
{
name = top;
pos = (240,700);
}
);
layerId = "FDF8D1BA-B4CE-4A91-B9C2-23316F7DE4E8";
shapes = (
{
closed = 1;
nodes = (
(172.989,-6,o),
(101.861,27.154,o),
(48.765,88.032,cs),
(-20.706,167.685,o),
(84.556,257.33,o),
(154.023,177.677,cs),
(226.101,95.03,o),
(332.029,138.875,o),
(338.297,204.051,cs),
(343.76,260.849,o),
(303.622,302.506,o),
(223.398,302.506,cs),
(158.98,302.506,o),
(134.68,364.676,o),
(165.934,410.068,cs),
(270.364,561.738,l),
(108.753,561.738,ls),
(2.571,561.738,o),
(2.571,700,o),
(108.753,700,cs),
(348.25,700,ls),
(445.326,700,o),
(469.046,619.93,o),
(428.698,554.308,cs),
(428.363,553.763,o),
(428.013,553.232,o),
(336.959,418.574,c),
(404.307,391.688,o),
(483.354,311.614,o),
(471.921,192.806,cs),
(465.136,122.3,o),
(427.429,62.089,o),
(368.461,27.618,cs),
(329.724,4.973,o),
(287.47,-6,o),
(245.415,-6,cs)
);
}
);
width = 499.03;
}
);
unicode = 1248;
},
{
glyphname = "Hahook-cy";
lastChange = "2026-06-06 17:22:09 +0000";
layers = (
{
anchors = (
{
name = bottom;
pos = (314.91,0);
},
{
name = top;
pos = (314.91,700);
}
);
layerId = "FDF8D1BA-B4CE-4A91-B9C2-23316F7DE4E8";
shapes = (
{
closed = 1;
nodes = (
(597.463,-147.403,o),
(490.754,-250.75,o),
(337.053,-241.183,cs),
(233.013,-234.708,o),
(232.673,-106.093,o),
(337.053,-107.183,cs),
(446.201,-108.323,o),
(481.363,-13.893,o),
(447.463,50.287,cs),
(434.905,74.06,o),
(415.561,100.563,o),
(398.82,122.174,cs),
(312.153,234.057,l),
(172.153,49.057,ls),
(141.98,9.187,o),
(122.153,-0.943,o),
(92.153,-0.943,cs),
(37.153,-0.943,o),
(12.947,63.45,o),
(47.153,109.057,cs),
(227.153,349.057,l),
(47.153,579.057,ls),
(-21.269,666.484,o),
(92.617,749.41,o),
(157.153,664.057,cs),
(312.153,459.057,l),
(467.153,664.057,ls),
(531.688,749.41,o),
(645.574,666.484,o),
(577.153,579.057,cs),
(397.153,349.057,l),
(525.603,177.797,ls),
(586.955,95.997,o),
(592.107,18.764,o),
(592.573,4.317,cs)
);
}
);
width = 623.31;
}
);
unicode = 1276;
},
{
glyphname = "Elhook-cy";
kernLeft = "El-cy";
lastChange = "2026-06-06 20:01:22 +0000";
layers = (
{
layerId = "FDF8D1BA-B4CE-4A91-B9C2-23316F7DE4E8";
shapes = (
{
closed = 1;
nodes = (
(723.392,605,ls),
(723.392,669.008,o),
(696.79,700,o),
(627.79,700,cs),
(352.79,700,ls),
(281.79,700,o),
(264.858,668.616,o),
(257.79,605,cs),
(223.004,291.925,ls),
(211.498,188.369,o),
(179.716,135.691,o),
(102.79,135.691,cs),
(-6.247,135.691,o),
(1.79,-1,o),
(102.79,-1,cs),
(270.79,2,o),
(333.727,102.262,o),
(352.79,250,cs),
(392.79,560,l),
(587.79,560,l),
(587.79,12.536,ls),
(587.79,-46.973,o),
(558.29,-105.775,o),
(473.271,-105.775,cs),
(368.271,-105.775,o),
(368.271,-233.701,o),
(473.271,-239.964,cs),
(627.994,-249.22,o),
(723.392,-148.967,o),
(723.392,2.536,cs)
);
}
);
width = 767.27;
}
);
unicode = 1298;
},
{
glyphname = zero;
lastChange = "2026-06-03 23:15:07 +0000";
layers = (
{
layerId = "FDF8D1BA-B4CE-4A91-B9C2-23316F7DE4E8";
shapes = (
{
closed = 1;
nodes = (
(442,675,o),
(373,710,o),
(303,710,cs),
(230,710,o),
(161,675,o),
(113,615,cs),
(64,550,o),
(38,457,o),
(38,355,cs),
(38,253,o),
(64,155,o),
(113,90,cs),
(161,30,o),
(230,-5,o),
(303,-5,cs),
(373,-5,o),
(442,30,o),
(488,90,cs),
(539,155,o),
(565,253,o),
(563,355,cs),
(565,457,o),
(539,550,o),
(488,615,c)
);
},
{
closed = 1;
nodes = (
(384,570,o),
(428,470,o),
(428,355,cs),
(428,235,o),
(384,135,o),
(303,135,cs),
(228,135,o),
(173,233,o),
(173,355,cs),
(173,470,o),
(218,570,o),
(303,570,cs)
);
}
);
width = 601.11;
}
);
unicode = 48;
},
{
glyphname = one;
lastChange = "2026-06-03 23:15:07 +0000";
layers = (
{
layerId = "FDF8D1BA-B4CE-4A91-B9C2-23316F7DE4E8";
shapes = (
{
closed = 1;
nodes = (
(279.27,707,o),
(240.27,699,o),
(208.27,670,c),
(58.27,555,ls),
(29.27,529,o),
(24.27,485,o),
(48.27,455,cs),
(72.27,425,o),
(115.27,420,o),
(143.27,445,cs),
(228.27,510,l),
(228.27,70,ls),
(228.27,31,o),
(259.27,0,o),
(298.27,0,cs),
(336.27,0,o),
(367.27,31,o),
(368.27,70,cs),
(368.27,600,ls),
(367.27,643,o),
(346.27,678,o),
(313.27,695,cs)
);
}
);
width = 419.27;
}
);
unicode = 49;
},
{
glyphname = two;
lastChange = "2026-06-03 23:15:07 +0000";
layers = (
{
layerId = "FDF8D1BA-B4CE-4A91-B9C2-23316F7DE4E8";
shapes = (
{
closed = 1;
nodes = (
(245.37,135,l),
(418.37,280,o),
(493.37,370,o),
(505.37,475,cs),
(518.37,620,o),
(393.37,710,o),
(285.37,710,cs),
(173.37,710,o),
(78.37,655,o),
(45.37,540,cs),
(13.37,445,o),
(138.37,400,o),
(175.37,495,cs),
(193.37,545,o),
(229.37,582,o),
(290.37,575,cs),
(352.37,568,o),
(375.37,515,o),
(355.37,460,cs),
(330.37,391,o),
(123.37,210,o),
(75.37,165,cs),
(0.37,99,o),
(33.37,0,o),
(145.37,0,cs),
(450.37,0,ls),
(553.37,0,o),
(558.37,143,o),
(450.37,140,cs)
);
}
);
width = 562.51;
}
);
unicode = 50;
},
{
glyphname = three;
lastChange = "2026-06-06 19:59:53 +0000";
layers = (
{
layerId = "FDF8D1BA-B4CE-4A91-B9C2-23316F7DE4E8";
shapes = (
{
closed = 1;
nodes = (
(479.99,305,o),
(472.99,200,cs),
(467.99,62,o),
(356.99,-5,o),
(247.99,-5,cs),
(175.99,-5,o),
(106.99,21,o),
(52.99,85,cs),
(-10.01,165,o),
(89.99,250,o),
(157.99,175,cs),
(205.99,126,o),
(267.99,122,o),
(307.99,150,cs),
(354.99,180,o),
(354.99,250,o),
(306.99,280,cs),
(290.99,292,o),
(268.99,299,o),
(222.99,300,cs),
(139.99,298,o),
(124.99,405,o),
(207.99,425,cs),
(269.99,439,o),
(299.99,474,o),
(298.99,510,cs),
(300.99,545,o),
(274.99,570,o),
(237.99,570,cs),
(219.99,570,o),
(202.99,565,o),
(172.99,535,cs),
(104.99,460,o),
(7.99,545,o),
(67.99,625,cs),
(98.99,667,o),
(152.99,710,o),
(237.99,710,cs),
(349.99,710,o),
(434.99,640,o),
(434.99,525,cs),
(434.99,450,o),
(392.99,405,o),
(367.99,385,c),
(397.99,375,o)
);
}
);
width = 508.41;
}
);
unicode = 51;
},
{
glyphname = four;
kernLeft = "4";
kernRight = "4";
lastChange = "2026-06-06 14:19:11 +0000";
layers = (
{
layerId = "FDF8D1BA-B4CE-4A91-B9C2-23316F7DE4E8";
shapes = (
{
closed = 1;
nodes = (
(462.41,275,l),
(462.41,595,l),
(464.41,696,o),
(352.41,745,o),
(277.41,640,c),
(79.41,315,o),
(62.41,289,o),
(52.41,280,cs),
(11.41,210,o),
(36.41,135,o),
(117.41,135,cs),
(322.41,135,l),
(322.41,75,l),
(326.41,-24,o),
(464.41,-24,o),
(462.41,75,c),
(462.41,135,l),
(517.41,135,l),
(622.41,135,o),
(622.41,275,o),
(517.41,275,c)
);
},
{
closed = 1;
nodes = (
(197.41,275,l),
(337.41,500,l),
(327.41,275,l)
);
}
);
width = 629.16;
}
);
unicode = 52;
},
{
glyphname = five;
kernLeft = "5";
lastChange = "2026-06-06 14:19:59 +0000";
layers = (
{
layerId = "FDF8D1BA-B4CE-4A91-B9C2-23316F7DE4E8";
shapes = (
{
closed = 1;
nodes = (
(344.5,459,o),
(287.5,460,o),
(195.5,455,c),
(205.5,565,l),
(385.5,565,ls),
(487.5,565,o),
(487.5,700,o),
(385.5,700,cs),
(150.5,700,ls),
(113.5,700,o),
(86.5,675,o),
(85.5,640,cs),
(55.5,380,ls),
(47.5,337,o),
(86.5,296,o),
(140.5,305,cs),
(200.5,315,ls),
(234.5,321,o),
(292.5,327,o),
(335.5,295,cs),
(382.5,254,o),
(364.5,179,o),
(315.5,155,cs),
(257.5,123,o),
(186.5,143,o),
(155.5,180,cs),
(123.5,206,o),
(80.5,206,o),
(55.5,180,cs),
(25.5,152,o),
(25.5,108,o),
(55.5,80,cs),
(105.5,28,o),
(176.5,0,o),
(250.5,0,cs),
(291.5,0,o),
(335.5,11,o),
(380.5,30,cs),
(442.5,69,o),
(486.5,134,o),
(495.5,210,cs),
(499.5,280,o),
(469.5,358,o),
(415.5,405,cs)
);
}
);
width = 530.86;
}
);
unicode = 53;
},
{
glyphname = six;
kernLeft = "6";
kernRight = "6";
lastChange = "2026-06-06 19:59:53 +0000";
layers = (
{
layerId = "FDF8D1BA-B4CE-4A91-B9C2-23316F7DE4E8";
shapes = (
{
closed = 1;
nodes = (
(36.08,93,o),
(136.08,-5,o),
(266.08,-5,cs),
(405.08,-5,o),
(516.08,103,o),
(501.08,250,cs),
(479.08,423,o),
(317.08,443,o),
(256.08,440,c),
(301.08,495,o),
(346.08,555,o),
(371.08,590,cs),
(442.08,678,o),
(331.08,745,o),
(271.08,670,cs),
(233.08,622,o),
(208.08,591,o),
(161.08,525,cs),
(69.08,398,o),
(34.08,323,o),
(36.08,225,cs)
);
},
{
closed = 1;
nodes = (
(366.08,175,o),
(326.08,130,o),
(266.08,130,cs),
(206.08,130,o),
(166.08,175,o),
(171.08,230,cs),
(176.08,280,o),
(221.08,315,o),
(266.08,315,cs),
(311.08,315,o),
(356.08,280,o),
(361.08,230,cs)
);
}
);
width = 537.44;
}
);
unicode = 54;
},
{
glyphname = seven;
kernLeft = "7";
kernRight = "7";
lastChange = "2026-06-06 14:20:12 +0000";
layers = (
{
layerId = "FDF8D1BA-B4CE-4A91-B9C2-23316F7DE4E8";
shapes = (
{
closed = 1;
nodes = (
(110.64,700,ls),
(9.64,700,o),
(4.64,560,o),
(110.64,560,cs),
(345.64,560,l),
(100.64,110,ls),
(75.64,65,o),
(83.64,18,o),
(120.64,5,cs),
(159.64,-10,o),
(195.64,2,o),
(225.64,55,cs),
(485.64,540,ls),
(529.64,623,o),
(499.64,700,o),
(400.64,700,cs)
);
}
);
width = 538.4;
}
);
unicode = 55;
},
{
glyphname = eight;
lastChange = "2026-06-03 23:15:07 +0000";
layers = (
{
layerId = "FDF8D1BA-B4CE-4A91-B9C2-23316F7DE4E8";
shapes = (
{
closed = 1;
nodes = (
(228.82,445,o),
(198.82,470,o),
(198.82,510,cs),
(198.82,550,o),
(233.82,575,o),
(268.82,575,cs),
(303.82,575,o),
(338.82,550,o),
(338.82,510,cs),
(338.82,470,o),
(308.82,445,o),
(268.82,445,cs)
);
},
{
closed = 1;
nodes = (
(58.82,70,o),
(153.82,-5,o),
(268.82,-5,cs),
(383.82,-5,o),
(478.82,70,o),
(498.82,180,cs),
(513.82,265,o),
(483.82,335,o),
(423.82,385,c),
(443.82,410,o),
(473.82,455,o),
(473.82,510,cs),
(473.82,625,o),
(378.82,710,o),
(268.82,710,cs),
(158.82,710,o),
(63.82,625,o),
(63.82,510,cs),
(63.82,455,o),
(93.82,410,o),
(113.82,385,c),
(53.82,335,o),
(23.82,265,o),
(38.82,180,cs)
);
},
{
closed = 1;
nodes = (
(168.82,270,o),
(213.82,315,o),
(268.82,315,cs),
(323.82,315,o),
(368.82,270,o),
(363.82,215,cs),
(358.82,165,o),
(308.82,135,o),
(268.82,135,cs),
(228.82,135,o),
(178.82,165,o),
(173.82,215,cs)
);
}
);
width = 537.64;
}
);
unicode = 56;
},
{
glyphname = nine;
kernLeft = "9";
kernRight = "9";
lastChange = "2026-06-06 19:59:53 +0000";
layers = (
{
layerId = "FDF8D1BA-B4CE-4A91-B9C2-23316F7DE4E8";
shapes = (
{
closed = 1;
nodes = (
(501.72,610,o),
(399.72,708,o),
(271.72,708,cs),
(130.72,708,o),
(19.72,600,o),
(36.72,455,cs),
(56.72,280,o),
(218.72,260,o),
(281.72,265,c),
(234.72,208,o),
(189.72,148,o),
(166.72,115,cs),
(93.72,25,o),
(204.72,-42,o),
(266.72,35,cs),
(302.72,81,o),
(327.72,112,o),
(376.72,180,cs),
(466.72,305,o),
(501.72,380,o),
(501.72,480,cs)
);
},
{
closed = 1;
nodes = (
(169.72,528,o),
(209.72,573,o),
(271.72,575,cs),
(329.72,573,o),
(369.72,528,o),
(366.72,475,cs),
(359.72,423,o),
(314.72,388,o),
(271.72,390,cs),
(224.72,388,o),
(179.72,423,o),
(176.72,475,cs)
);
}
);
width = 537.72;
}
);
unicode = 57;
},
{
glyphname = zerosuperior;
lastChange = "2026-06-03 23:15:07 +0000";
layers = (
{
layerId = "FDF8D1BA-B4CE-4A91-B9C2-23316F7DE4E8";
shapes = (
{
closed = 1;
nodes = (
(226,575,o),
(256,540,o),
(256,475,cs),
(256,415,o),
(228,375,o),
(206,375,cs),
(183,375,o),
(156,410,o),
(156,475,cs),
(156,540,o),
(183,575,o),
(206,575,cs)
);
},
{
closed = 1;
nodes = (
(21,345,o),
(96,240,o),
(206,240,cs),
(311,240,o),
(391,350,o),
(391,475,cs),
(391,600,o),
(311,705,o),
(206,705,cs),
(96,705,o),
(21,600,o),
(21,475,cs)
);
}
);
width = 411;
}
);
unicode = 8304;
},
{
glyphname = onesuperior;
lastChange = "2026-06-06 19:59:53 +0000";
layers = (
{
layerId = "FDF8D1BA-B4CE-4A91-B9C2-23316F7DE4E8";
shapes = (
{
closed = 1;
nodes = (
(268.93,699,o),
(186.93,722,o),
(135.93,675,cs),
(50.93,600,ls),
(-37.07,525,o),
(59.93,426,o),
(135.93,500,cs),
(140.93,505,l),
(140.93,315,ls),
(138.93,220,o),
(268.93,220,o),
(270.93,315,cs),
(270.93,610,ls)
);
}
);
width = 303.93;
}
);
unicode = 185;
},
{
glyphname = twosuperior;
lastChange = "2026-06-06 19:59:53 +0000";
layers = (
{
layerId = "FDF8D1BA-B4CE-4A91-B9C2-23316F7DE4E8";
shapes = (
{
closed = 1;
nodes = (
(241.03,380,l),
(316.03,456,o),
(340.03,486,o),
(341.03,540,cs),
(348.03,622,o),
(284.03,694,o),
(196.03,700,cs),
(122.03,708,o),
(54.03,663,o),
(26.03,585,cs),
(-9.97,482,o),
(126.03,448,o),
(151.03,540,cs),
(162.03,576,o),
(203.03,581,o),
(206.03,550,cs),
(214.03,519,o),
(162.03,478,o),
(46.03,370,cs),
(-4.97,318,o),
(29.03,245,o),
(91.03,245,cs),
(281.03,245,ls),
(384.03,245,o),
(384.03,379,o),
(281.03,379,cs)
);
}
);
width = 375.66;
}
);
unicode = 178;
},
{
glyphname = threesuperior;
lastChange = "2026-06-06 19:59:53 +0000";
layers = (
{
layerId = "FDF8D1BA-B4CE-4A91-B9C2-23316F7DE4E8";
shapes = (
{
closed = 1;
nodes = (
(319.67,594,o),
(263.67,655,cs),
(209.67,714,o),
(99.942,714,o),
(43.67,645,cs),
(-7.14,581.797,o),
(53.14,507.172,o),
(120.202,548.345,cs),
(125.916,551.853,o),
(132.913,554.051,o),
(139.67,558,cs),
(153.306,565.968,o),
(175.67,559.471,o),
(175.67,540,cs),
(175.67,523,o),
(158.77,515,o),
(138.67,515,cs),
(89.67,515,o),
(79.67,435,o),
(153.67,435,cs),
(173.77,435,o),
(199.07,416.386,o),
(186.67,390,cs),
(177.142,369.725,o),
(146.97,375.933,o),
(133.67,390,cs),
(70.985,456.299,o),
(-23.33,382,o),
(38.67,305,cs),
(98.67,230,o),
(192.67,234,o),
(248.67,265,cs),
(349.67,326,o),
(329.582,457.159,o),
(278.67,490,c),
(305.67,522,o)
);
}
);
width = 341.68;
}
);
unicode = 179;
},
{
glyphname = foursuperior;
lastChange = "2026-06-06 19:59:53 +0000";
layers = (
{
layerId = "FDF8D1BA-B4CE-4A91-B9C2-23316F7DE4E8";
shapes = (
{
closed = 1;
nodes = (
(161.67,450,l),
(165.67,455,o),
(201.67,510,o),
(201.67,515,c),
(201.67,450,l)
);
},
{
closed = 1;
nodes = (
(311.67,460,l),
(311.67,610,ls),
(311.67,705,o),
(212.67,730,o),
(161.67,650,cs),
(51.67,473,o),
(35.67,450,o),
(31.67,445,cs),
(-7.33,385,o),
(31.67,330,o),
(91.67,330,cs),
(181.67,330,l),
(181.67,320,ls),
(181.67,226,o),
(312.67,230,o),
(312.67,320,cs),
(311.67,330,l),
(321.67,330,ls),
(417.67,330,o),
(417.67,460,o),
(321.67,460,cs)
);
}
);
width = 409.67;
}
);
unicode = 8308;
},
{
glyphname = fivesuperior;
lastChange = "2026-06-06 19:59:53 +0000";
layers = (
{
layerId = "FDF8D1BA-B4CE-4A91-B9C2-23316F7DE4E8";
shapes = (
{
closed = 1;
nodes = (
(248.31,556,o),
(175.31,545,o),
(173.31,560,cs),
(173.31,570,l),
(248.31,565,ls),
(348.31,558,o),
(348.31,700,o),
(248.31,700,cs),
(118.31,700,ls),
(81.31,700,o),
(52.31,675,o),
(48.31,640,cs),
(33.31,505,ls),
(30.31,475,o),
(40.31,459,o),
(53.31,445,cs),
(93.31,408,o),
(135.31,435,o),
(173.31,435,cs),
(210.31,435,o),
(215.31,395,o),
(193.31,385,cs),
(173.31,374,o),
(149.31,385,o),
(133.31,395,cs),
(50.31,455,o),
(-19.69,364,o),
(38.31,300,cs),
(96.31,242,o),
(189.31,233,o),
(258.31,270,cs),
(355.31,320,o),
(373.31,460,o),
(288.31,525,cs)
);
}
);
width = 361.74;
}
);
unicode = 8309;
},
{
glyphname = sixsuperior;
lastChange = "2026-06-06 19:59:53 +0000";
layers = (
{
layerId = "FDF8D1BA-B4CE-4A91-B9C2-23316F7DE4E8";
shapes = (
{
closed = 1;
nodes = (
(242,366,o),
(189,365,cs),
(138,364,o),
(141,440,o),
(189,440,cs),
(239,440,o)
);
},
{
closed = 1;
nodes = (
(244,555,o),
(254,565,o),
(264,575,cs),
(338,649,o),
(257,734,o),
(184,680,cs),
(100,621,o),
(20,503,o),
(20,400,cs),
(20,338,o),
(58,240,o),
(189,240,cs),
(277,240,o),
(342,299,o),
(354,380,cs),
(359,426,o),
(349,467,o),
(319,500,cs),
(298,525,o),
(271,545,o),
(244,555,c)
);
}
);
width = 373.23;
}
);
unicode = 8310;
},
{
glyphname = sevensuperior;
lastChange = "2026-06-06 19:59:53 +0000";
layers = (
{
layerId = "FDF8D1BA-B4CE-4A91-B9C2-23316F7DE4E8";
shapes = (
{
closed = 1;
nodes = (
(94.75,700,ls),
(-11.25,700,o),
(-11.25,570,o),
(94.75,570,cs),
(184.75,570,l),
(64.75,355,ls),
(6.75,252,o),
(136.75,202,o),
(184.75,290,cs),
(334.75,575,ls),
(370.75,639,o),
(336.75,700,o),
(259.75,700,cs)
);
}
);
width = 365.13;
}
);
unicode = 8311;
},
{
glyphname = eightsuperior;
lastChange = "2026-06-06 19:59:53 +0000";
layers = (
{
layerId = "FDF8D1BA-B4CE-4A91-B9C2-23316F7DE4E8";
shapes = (
{
closed = 1;
nodes = (
(314.53,643,o),
(256.53,701,o),
(174.53,701,cs),
(99.53,699,o),
(35.53,643,o),
(35.53,565,cs),
(35.53,543,o),
(44.53,510,o),
(59.53,495,c),
(34.53,470,o),
(15.53,427,o),
(19.53,385,cs),
(30.53,311,o),
(97.53,255,o),
(174.53,255,cs),
(264.53,255,o),
(320.53,311,o),
(329.53,385,cs),
(335.53,427,o),
(319.53,470,o),
(289.53,495,c),
(304.53,510,o),
(315.53,543,o),
(314.53,565,cs)
);
},
{
closed = 1;
nodes = (
(225.53,443,o),
(228.53,369,o),
(174.53,370,cs),
(124.53,371,o),
(127.53,447,o),
(174.53,445,cs)
);
},
{
closed = 1;
nodes = (
(205.53,591,o),
(210.53,540,o),
(174.53,540,cs),
(140.53,540,o),
(143.53,591,o),
(174.53,590,cs)
);
}
);
width = 349.78;
}
);
unicode = 8312;
},
{
glyphname = ninesuperior;
lastChange = "2026-06-03 23:15:08 +0000";
layers = (
{
layerId = "FDF8D1BA-B4CE-4A91-B9C2-23316F7DE4E8";
shapes = (
{
closed = 1;
nodes = (
(131.84,609,o),
(183.84,610,cs),
(235.84,611,o),
(232.84,535,o),
(183.84,535,cs),
(134.84,535,o)
);
},
{
closed = 1;
nodes = (
(129.84,420,o),
(119.84,410,o),
(108.84,400,cs),
(35.84,326,o),
(116.84,241,o),
(188.84,295,cs),
(273.84,354,o),
(353.84,472,o),
(353.84,575,cs),
(353.84,637,o),
(315.84,735,o),
(183.84,735,cs),
(96.84,735,o),
(31.84,676,o),
(18.84,595,cs),
(14.84,549,o),
(24.84,503,o),
(53.84,470,cs),
(75.84,445,o),
(102.84,430,o),
(128.84,420,c)
);
}
);
width = 372.84;
}
);
unicode = 8313;
},
{
glyphname = period;
lastChange = "2026-06-03 23:15:08 +0000";
layers = (
{
layerId = "FDF8D1BA-B4CE-4A91-B9C2-23316F7DE4E8";
shapes = (
{
closed = 1;
nodes = (
(202,32,o),
(167,-5,o),
(122,-5,cs),
(77,-5,o),
(42,32,o),
(42,75,cs),
(42,115,o),
(72,155,o),
(122,155,cs),
(172,155,o),
(202,115,o),
(202,75,cs)
);
}
);
width = 244;
}
);
unicode = 46;
},
{
glyphname = comma;
lastChange = "2026-06-03 23:15:07 +0000";
layers = (
{
layerId = "FDF8D1BA-B4CE-4A91-B9C2-23316F7DE4E8";
shapes = (
{
closed = 1;
nodes = (
(123.09,-209,o),
(2.09,-154,o),
(45.09,-60,cs),
(135.09,145,ls),
(177.09,241,o),
(315.09,190,o),
(265.09,85,cs),
(170.09,-115,ls)
);
}
);
width = 311.86;
}
);
unicode = 44;
},
{
glyphname = exclam;
lastChange = "2026-06-06 19:59:53 +0000";
layers = (
{
layerId = "FDF8D1BA-B4CE-4A91-B9C2-23316F7DE4E8";
shapes = (
{
pos = (-6,0);
ref = period;
},
{
closed = 1;
nodes = (
(54,209,o),
(54,310,cs),
(54,620,ls),
(54,724,o),
(194,724,o),
(194,620,cs),
(194,310,ls),
(194,209,o)
);
}
);
width = 241;
}
);
unicode = 33;
},
{
glyphname = question;
kernLeft = Quest;
kernRight = Quest;
lastChange = "2026-06-06 19:59:53 +0000";
layers = (
{
layerId = "FDF8D1BA-B4CE-4A91-B9C2-23316F7DE4E8";
shapes = (
{
closed = 1;
nodes = (
(298.24,195,o),
(163.24,200,o),
(163.24,290,cs),
(151.24,420,o),
(263.24,450,o),
(287.24,490,cs),
(302.24,527,o),
(283.24,561,o),
(257.24,570,cs),
(225.24,582,o),
(184.24,567,o),
(167.24,520,cs),
(123.24,430,o),
(-1.76,485,o),
(42.24,580,cs),
(68.24,651,o),
(130.24,702,o),
(207.24,710,cs),
(295.24,720,o),
(350.24,686,o),
(392.24,640,cs),
(438.24,580,o),
(453.24,481,o),
(397.24,415,cs),
(338.24,355,o),
(298.24,348,o),
(302.24,295,cs)
);
},
{
pos = (102.24,0);
ref = period;
}
);
width = 467.35;
}
);
unicode = 63;
},
{
glyphname = asterisk;
lastChange = "2026-06-06 19:59:53 +0000";
layers = (
{
layerId = "FDF8D1BA-B4CE-4A91-B9C2-23316F7DE4E8";
shapes = (
{
closed = 1;
nodes = (
(388.63,460,l),
(423.63,480,ls),
(512.63,530,o),
(444.63,651,o),
(353.63,600,cs),
(318.63,580,l),
(318.63,625,ls),
(318.63,722,o),
(183.63,722,o),
(183.63,625,cs),
(183.63,580,l),
(148.63,600,ls),
(57.63,651,o),
(-10.37,530,o),
(78.63,480,cs),
(113.63,460,l),
(78.63,440,ls),
(-10.37,390,o),
(57.63,269,o),
(148.63,320,cs),
(183.63,340,l),
(183.63,295,ls),
(183.63,197,o),
(318.63,197,o),
(318.63,295,cs),
(318.63,340,l),
(358.63,320,ls),
(444.63,269,o),
(512.63,390,o),
(428.63,440,cs)
);
}
);
width = 503.97;
}
);
unicode = 42;
},
{
glyphname = numbersign;
lastChange = "2026-06-06 19:59:53 +0000";
layers = (
{
layerId = "FDF8D1BA-B4CE-4A91-B9C2-23316F7DE4E8";
shapes = (
{
closed = 1;
nodes = (
(497.75,280,l),
(342.75,280,l),
(382.75,420,l),
(537.75,420,l)
);
},
{
closed = 1;
nodes = (
(722.75,555,l),
(737.75,610,ls),
(767.75,715,o),
(636.75,728,o),
(607.75,645,cs),
(577.75,555,l),
(422.75,555,l),
(437.75,610,ls),
(467.75,715,o),
(327.75,730,o),
(307.75,645,cs),
(282.75,555,l),
(187.75,555,ls),
(90.75,555,o),
(90.75,420,o),
(187.75,420,cs),
(242.75,420,l),
(202.75,280,l),
(102.75,280,ls),
(9.75,280,o),
(9.75,145,o),
(102.75,145,cs),
(162.75,145,l),
(147.75,90,ls),
(120.75,-14,o),
(254.75,-30,o),
(277.75,55,cs),
(302.75,145,l),
(457.75,145,l),
(442.75,90,ls),
(414.75,-15,o),
(545.75,-29,o),
(572.75,55,cs),
(602.75,145,l),
(707.75,145,ls),
(804.75,145,o),
(804.75,280,o),
(707.75,280,cs),
(642.75,280,l),
(682.75,420,l),
(787.75,420,ls),
(882.75,420,o),
(882.75,555,o),
(787.75,555,cs)
);
}
);
width = 892;
}
);
unicode = 35;
},
{
glyphname = slash;
lastChange = "2026-06-03 23:15:07 +0000";
layers = (
{
layerId = "FDF8D1BA-B4CE-4A91-B9C2-23316F7DE4E8";
shapes = (
{
closed = 1;
nodes = (
(44.43,0,o),
(12.43,61,o),
(47.43,120,cs),
(332.43,650,ls),
(383.43,751,o),
(522.43,682,o),
(467.43,575,cs),
(182.43,50,ls),
(164.43,22,o),
(139.43,0,o),
(107.43,0,cs)
);
}
);
width = 513.09;
}
);
unicode = 47;
},
{
glyphname = hyphen;
lastChange = "2026-06-06 17:09:08 +0000";
layers = (
{
layerId = "FDF8D1BA-B4CE-4A91-B9C2-23316F7DE4E8";
shapes = (
{
closed = 1;
nodes = (
(116.5,286,ls),
(9.5,286,o),
(9.5,424,o),
(116.5,424,cs),
(456.5,424,ls),
(565.5,424,o),
(565.5,286,o),
(456.5,286,cs)
);
}
);
width = 573.5;
}
);
unicode = 45;
},
{
glyphname = endash;
lastChange = "2026-06-06 14:32:54 +0000";
layers = (
{
layerId = "FDF8D1BA-B4CE-4A91-B9C2-23316F7DE4E8";
shapes = (
{
closed = 1;
nodes = (
(116.5,291,ls),
(9.5,291,o),
(9.5,429,o),
(116.5,429,cs),
(626.5,429,ls),
(738.5,429,o),
(738.5,291,o),
(626.5,291,cs)
);
}
);
width = 745.75;
}
);
unicode = 8211;
},
{
glyphname = emdash;
lastChange = "2026-06-06 14:32:49 +0000";
layers = (
{
layerId = "FDF8D1BA-B4CE-4A91-B9C2-23316F7DE4E8";
shapes = (
{
closed = 1;
nodes = (
(116.5,286,ls),
(9.5,286,o),
(9.5,424,o),
(116.5,424,cs),
(751.5,424,ls),
(863.5,424,o),
(863.5,286,o),
(751.5,286,cs)
);
}
);
width = 870.75;
}
);
unicode = 8212;
},
{
glyphname = underscore;
lastChange = "2026-06-03 23:15:07 +0000";
layers = (
{
layerId = "FDF8D1BA-B4CE-4A91-B9C2-23316F7DE4E8";
shapes = (
{
closed = 1;
nodes = (
(116.5,0,ls),
(6.5,0,o),
(6.5,150,o),
(116.5,150,cs),
(626.5,150,ls),
(741.5,150,o),
(741.5,0,o),
(626.5,0,cs)
);
}
);
width = 745.75;
}
);
unicode = 95;
},
{
glyphname = wavedash;
lastChange = "2026-06-03 23:15:07 +0000";
layers = (
{
layerId = "FDF8D1BA-B4CE-4A91-B9C2-23316F7DE4E8";
shapes = (
{
closed = 1;
nodes = (
(321.14,317,o),
(296.14,347,o),
(258.14,345,cs),
(216.14,347,o),
(194.14,336,o),
(158.14,290,cs),
(91.14,217,o),
(6.14,277,o),
(33.14,345,cs),
(61.14,432,o),
(156.14,487,o),
(248.14,485,cs),
(311.14,487,o),
(374.14,441,o),
(408.14,415,cs),
(446.14,387,o),
(480.14,362,o),
(518.14,360,cs),
(556.14,362,o),
(579.14,374,o),
(618.14,415,cs),
(681.14,492,o),
(766.14,432,o),
(743.14,360,cs),
(711.14,277,o),
(616.14,222,o),
(528.14,220,cs),
(466.14,222,o),
(415.14,252,o),
(388.14,270,cs)
);
}
);
width = 774.99;
}
);
unicode = 12316;
},
{
glyphname = parenleft;
lastChange = "2026-06-03 23:15:07 +0000";
layers = (
{
layerId = "FDF8D1BA-B4CE-4A91-B9C2-23316F7DE4E8";
shapes = (
{
closed = 1;
nodes = (
(36,495,o),
(116,632,o),
(211,690,cs),
(301,745,o),
(374,650,o),
(301,580,cs),
(247,528,o),
(176,461,o),
(176,350,cs),
(176,237,o),
(246,171,o),
(301,120,cs),
(374,48,o),
(301,-45,o),
(211,10,cs),
(116,68,o),
(36,205,o),
(36,350,cs)
);
}
);
width = 365.83;
}
);
unicode = 40;
},
{
glyphname = braceleft;
lastChange = "2026-06-06 23:44:47 +0000";
layers = (
{
layerId = "FDF8D1BA-B4CE-4A91-B9C2-23316F7DE4E8";
shapes = (
{
closed = 1;
nodes = (
(327,-5,ls),
(225,-5,o),
(138,80,o),
(138,185,cs),
(137,230,l),
(102,250,ls),
(10,303,o),
(10,397,o),
(102,450,cs),
(137,470,l),
(137,515,ls),
(137,621,o),
(225,706,o),
(327,706,cs),
(362,705,ls),
(461,705,o),
(461,570,o),
(362,570,cs),
(327,570,ls),
(298,568,o),
(277,548.015,o),
(277,515,cs),
(277,480,ls),
(277,434.991,o),
(275,370,o),
(182,350,c),
(275,330,o),
(277,266.009,o),
(277,220,cs),
(277,185,ls),
(277,155.983,o),
(301,132,o),
(327,130,cs),
(362,130,ls),
(461,130,o),
(461,-5,o),
(362,-5,cs)
);
}
);
width = 471.25;
}
);
unicode = 123;
},
{
glyphname = bracketleft;
lastChange = "2026-06-03 23:15:07 +0000";
layers = (
{
layerId = "FDF8D1BA-B4CE-4A91-B9C2-23316F7DE4E8";
shapes = (
{
closed = 1;
nodes = (
(170,-5,ls),
(104,-5,o),
(50,49,o),
(50,115,cs),
(50,585,ls),
(50,652,o),
(104,705,o),
(170,705,cs),
(270,705,ls),
(370,705,o),
(370,570,o),
(270,570,cs),
(190,570,l),
(190,135,l),
(270,135,ls),
(370,135,o),
(370,-5,o),
(270,-5,cs)
);
}
);
width = 380;
}
);
unicode = 91;
},
{
glyphname = guilsinglleft;
lastChange = "2026-06-03 23:15:07 +0000";
layers = (
{
layerId = "FDF8D1BA-B4CE-4A91-B9C2-23316F7DE4E8";
shapes = (
{
closed = 1;
nodes = (
(379.38,-48,o),
(306.38,30,cs),
(66.38,280,ls),
(21.38,325,o),
(22.38,370,o),
(66.38,415,cs),
(306.38,665,ls),
(379.38,743,o),
(478.38,646,o),
(406.38,570,cs),
(191.38,350,l),
(406.38,125,ls),
(482.38,46,o)
);
}
);
width = 468.08;
}
);
unicode = 8249;
},
{
glyphname = flower;
lastChange = "2026-06-03 23:47:44 +0000";
layers = (
{
layerId = "FDF8D1BA-B4CE-4A91-B9C2-23316F7DE4E8";
shapes = (
{
closed = 1;
nodes = (
(1.993,280,o),
(101.993,280,c),
(31.993,210,o),
(121.993,115,o),
(201.993,180,c),
(201.993,80,o),
(341.993,80,o),
(341.993,180,c),
(421.993,115,o),
(511.993,210,o),
(441.993,280,c),
(543.993,280,o),
(539.993,420,o),
(441.993,420,c),
(511.993,490,o),
(421.993,585,o),
(341.993,520,c),
(341.993,620,o),
(201.993,620,o),
(201.993,520,c),
(121.993,585,o),
(31.993,490,o),
(101.993,420,c),
(1.993,420,o)
);
},
{
pos = (157.996,0);
ref = periodcentered;
}
);
width = 540.01;
}
);
unicode = 9880;
},
{
glyphname = at;
kernLeft = O;
kernRight = O;
lastChange = "2026-06-06 11:34:10 +0000";
layers = (
{
layerId = "FDF8D1BA-B4CE-4A91-B9C2-23316F7DE4E8";
shapes = (
{
closed = 1;
nodes = (
(417,210,o),
(381,246,o),
(382,280,cs),
(381,327,o),
(417,355,o),
(457,355,cs),
(498,355,o),
(531,327,o),
(532,280,cs),
(531,246,o),
(497,210,o),
(457,210,cs)
);
},
{
closed = 1;
nodes = (
(883,523,o),
(702,690,o),
(492,705,cs),
(243,723,o),
(27,525,o),
(27,275,cs),
(27,165,o),
(77,60,o),
(137,10,cs),
(196,-39,o),
(287,10,o),
(222,85,cs),
(171,144,o),
(152,207,o),
(152,275,cs),
(152,455,o),
(297,590,o),
(477,590,cs),
(632,590,o),
(772,450,o),
(772,300,cs),
(772,237,o),
(762,150,o),
(687,125,cs),
(666,118,o),
(641,136,o),
(637,160,cs),
(637,415,ls),
(641,468,o),
(562,488,o),
(527,445,c),
(505,450,o),
(478,465,o),
(447,465,cs),
(352,465,o),
(272,380,o),
(272,275,cs),
(272,183,o),
(342,100,o),
(447,100,cs),
(476,100,o),
(507,105,o),
(527,120,c),
(549,42,o),
(634,-10,o),
(727,15,cs),
(857,50,o),
(897,190,o),
(892,305,cs)
);
}
);
width = 919.41;
}
);
unicode = 64;
},
{
glyphname = ampersand;
lastChange = "2026-06-03 23:15:07 +0000";
layers = (
{
layerId = "FDF8D1BA-B4CE-4A91-B9C2-23316F7DE4E8";
shapes = (
{
closed = 1;
nodes = (
(155.52,175,o),
(135.52,245,o),
(215.52,300,c),
(360.52,185,l),
(305.52,130,o),
(246.52,121,o),
(195.52,150,cs)
);
},
{
closed = 1;
nodes = (
(545.52,200,l),
(575.52,230,o),
(609.52,259,o),
(625.52,275,cs),
(688.52,338,o),
(607.52,437,o),
(530.52,365,cs),
(513.52,349,o),
(497.52,331,o),
(445.52,285,c),
(280.52,415,ls),
(240.52,448,o),
(186.52,485,o),
(205.52,540,cs),
(218.52,572,o),
(252.52,580,o),
(280.52,570,cs),
(311.52,560,o),
(316.52,532,o),
(320.52,515,cs),
(346.52,420,o),
(471.52,450,o),
(450.52,545,cs),
(414.52,723,o),
(180.52,772,o),
(85.52,615,cs),
(42.52,541,o),
(53.52,452,o),
(110.52,385,c),
(0.52,297,o),
(-11.48,120,o),
(130.52,35,cs),
(224.52,-19,o),
(357.52,-19,o),
(460.52,100,c),
(550.52,25,ls),
(624.52,-37,o),
(710.52,64,o),
(630.52,130,cs)
);
}
);
width = 686.59;
}
);
unicode = 38;
},
{
glyphname = paragraph;
lastChange = "2026-06-06 19:24:32 +0000";
layers = (
{
anchors = (
{
name = bottom;
pos = (216,0);
},
{
name = ogonek;
pos = (582,70);
},
{
name = top;
pos = (216,700);
},
{
name = topleft;
pos = (472,700);
}
);
layerId = "FDF8D1BA-B4CE-4A91-B9C2-23316F7DE4E8";
shapes = (
{
closed = 1;
nodes = (
(100,700,o),
(26,595,o),
(26,495,cs),
(26,391,o),
(100,285,o),
(241,285,cs),
(291,285,l),
(291,75,ls),
(291,-25,o),
(426,-29,o),
(426,75,cs),
(426,605,ls),
(426,665,o),
(398,700,o),
(331,700,cs),
(241,700,ls)
);
},
{
closed = 1;
nodes = (
(652,-25,o),
(512,-25,o),
(512,75,cs),
(512,625,ls),
(512,723,o),
(652,723,o),
(652,625,cs),
(652,75,ls)
);
}
);
width = 695;
}
);
unicode = 182;
},
{
glyphname = section;
lastChange = "2026-06-06 19:59:53 +0000";
layers = (
{
layerId = "FDF8D1BA-B4CE-4A91-B9C2-23316F7DE4E8";
shapes = (
{
closed = 1;
nodes = (
(146.811,392.715,o),
(188.002,398.345,o),
(212.213,398.345,cs),
(249.488,397.396,o),
(264.805,388.832,o),
(277.674,371.606,cs),
(285.695,360.869,o),
(293.677,306.504,o),
(213.63,306.504,cs),
(166.073,304.934,o),
(139.354,329.068,o),
(142.107,352.569,cs)
);
},
{
closed = 1;
nodes = (
(369.438,227.946,o),
(348.132,250.354,c),
(372.296,275.934,o),
(382.694,306.772,o),
(385.195,316.612,cs),
(396.062,359.368,o),
(386.44,402.994,o),
(360.026,437.405,cs),
(318.498,491.507,o),
(261.517,499.797,o),
(218.728,505.722,cs),
(184.497,510.455,o),
(164.419,513.834,o),
(150.764,528.621,cs),
(116.149,566.106,o),
(183.625,632.384,o),
(283.713,574.615,cs),
(355.373,533.254,o),
(409.814,625.558,o),
(338.144,666.924,cs),
(220.075,735.071,o),
(130.533,692.971,o),
(102.614,674.001,cs),
(65.13,648.532,o),
(40.731,609.15,o),
(35.674,565.959,cs),
(30.969,525.77,o),
(43.761,486.82,o),
(71.952,456.01,cs),
(73.514,454.302,o),
(75.141,452.769,o),
(76.744,451.183,c),
(26.659,398.754,o),
(16.784,314.881,o),
(71.948,255.08,cs),
(141.063,180.155,o),
(242.093,215.319,o),
(274.674,171.677,cs),
(291.773,148.774,o),
(279.82,119.97,o),
(248.181,108.01,cs),
(213.247,94.805,o),
(158.358,102.374,o),
(117.171,130.215,cs),
(46.386,178.063,o),
(-10.254,87.097,o),
(60.515,39.251,cs),
(138.228,-13.29,o),
(228.551,-13.29,o),
(286.067,7.767,cs),
(356.385,34.346,o),
(379.738,94.212,o),
(385.195,115.682,cs),
(401.777,180.923,o)
);
}
);
width = 418.76;
}
);
unicode = 167;
},
{
glyphname = copyright;
kernLeft = O;
kernRight = O;
lastChange = "2026-06-06 19:59:53 +0000";
layers = (
{
layerId = "FDF8D1BA-B4CE-4A91-B9C2-23316F7DE4E8";
shapes = (
{
closed = 1;
nodes = (
(257,603,o),
(144,490,o),
(144,350,cs),
(144,213,o),
(257,100,o),
(392,100,cs),
(533,100,o),
(646,213,o),
(646,350,cs),
(646,490,o),
(533,603,o),
(392,603,cs)
);
},
{
closed = 1;
nodes = (
(193,-15,o),
(29,149,o),
(29,350,cs),
(29,553,o),
(193,718,o),
(392,718,cs),
(597,718,o),
(762,553,o),
(762,350,cs),
(762,149,o),
(597,-15,o),
(392,-15,cs)
);
},
{
closed = 1;
nodes = (
(352,300,o),
(406,304,o),
(427,320,cs),
(496,369,o),
(562,285,o),
(492,225,cs),
(469,206,o),
(436,195,o),
(397,195,cs),
(311,195,o),
(241,259,o),
(241,350,cs),
(241,439,o),
(311,504,o),
(397,504,cs),
(436,504,o),
(471,489,o),
(492,475,cs),
(566,414,o),
(496,329,o),
(427,380,cs),
(406,394,o),
(352,400,o),
(352,350,cs)
);
}
);
width = 789;
}
);
unicode = 169;
},
{
glyphname = registered;
kernLeft = O;
kernRight = O;
lastChange = "2026-06-06 20:01:49 +0000";
layers = (
{
layerId = "FDF8D1BA-B4CE-4A91-B9C2-23316F7DE4E8";
shapes = (
{
closed = 1;
nodes = (
(254,101,o),
(142,215,o),
(142,355,cs),
(142,493,o),
(254,606,o),
(397,606,cs),
(531,606,o),
(640,493,o),
(640,355,cs),
(644,215,o),
(531,101,o),
(397,101,cs)
);
},
{
closed = 1;
nodes = (
(190,721,o),
(27,556,o),
(27,355,cs),
(27,151,o),
(190,-13,o),
(397,-13,cs),
(595,-7,o),
(762,151,o),
(762,355,cs),
(762,556,o),
(595,721,o),
(397,721,cs)
);
},
{
closed = 1;
nodes = (
(377,425,l),
(380,425,o),
(391,425,o),
(397,425,cs),
(442,425,o),
(442,366,o),
(397,365,cs),
(388,365,o),
(380,366,o),
(377,365,c)
);
},
{
closed = 1;
nodes = (
(528,441,o),
(497,515,o),
(387,515,cs),
(369,515,o),
(353,515,o),
(347,515,cs),
(307,515,o),
(284,491,o),
(282,450,cs),
(282,260,ls),
(282,173,o),
(386,173,o),
(386,260,c),
(412,225,ls),
(462,155,o),
(548,221,o),
(497,285,cs),
(477,310,l),
(507,324,o),
(528,364,o),
(527,395,cs)
);
}
);
width = 789;
}
);
unicode = 174;
},
{
glyphname = trademark;
lastChange = "2026-06-06 19:59:53 +0000";
layers = (
{
layerId = "FDF8D1BA-B4CE-4A91-B9C2-23316F7DE4E8";
shapes = (
{
closed = 1;
nodes = (
(374.75,700,o),
(286.75,700,cs),
(91.75,700,ls),
(1.75,700,o),
(1.75,580,o),
(91.75,580,cs),
(126.75,580,l),
(126.75,370,ls),
(126.75,284,o),
(246.75,280,o),
(246.75,370,cs),
(246.75,580,l),
(286.75,580,ls),
(374.75,580,o)
);
},
{
closed = 1;
nodes = (
(711.75,640,ls),
(690.75,719,o),
(593.75,722,o),
(571.75,640,cs),
(551.75,565,l),
(531.75,640,ls),
(510.75,721,o),
(412.75,719,o),
(391.75,640,cs),
(326.75,385,ls),
(302.75,303,o),
(415.75,267,o),
(441.75,355,cs),
(461.75,440,l),
(481.75,365,ls),
(503.75,283,o),
(600.75,286,o),
(621.75,365,cs),
(641.75,440,l),
(661.75,355,ls),
(685.75,271,o),
(800.75,305,o),
(781.75,385,cs)
);
}
);
width = 810.86;
}
);
unicode = 8482;
},
{
glyphname = degree;
lastChange = "2026-06-03 23:46:05 +0000";
layers = (
{
layerId = "FDF8D1BA-B4CE-4A91-B9C2-23316F7DE4E8";
shapes = (
{
closed = 1;
nodes = (
(493,584,o),
(409,700,o),
(263,700,cs),
(118,700,o),
(31,584,o),
(28,470,cs),
(31,343,o),
(133,235,o),
(263,235,cs),
(393,235,o),
(493,340,o),
(493,470,cs)
);
},
{
pos = (116.113,380);
ref = period;
scale = (1.1835,1.1835);
}
);
width = 522;
}
);
unicode = 176;
},
{
glyphname = bar;
lastChange = "2026-06-03 23:15:07 +0000";
layers = (
{
anchors = (
{
name = bottom;
pos = (114,0);
},
{
name = ogonek;
pos = (114,70);
},
{
name = top;
pos = (114,700);
},
{
name = topleft;
pos = (4,700);
}
);
layerId = "FDF8D1BA-B4CE-4A91-B9C2-23316F7DE4E8";
shapes = (
{
closed = 1;
nodes = (
(44,-100,o),
(44,0,cs),
(44,710,ls),
(44,808,o),
(184,808,o),
(184,710,cs),
(184,0,ls),
(184,-100,o)
);
}
);
width = 228;
}
);
unicode = 124;
},
{
glyphname = brokenbar;
lastChange = "2026-06-03 23:15:08 +0000";
layers = (
{
layerId = "FDF8D1BA-B4CE-4A91-B9C2-23316F7DE4E8";
shapes = (
{
closed = 1;
nodes = (
(40,360,o),
(40,460,cs),
(40,705,ls),
(40,803,o),
(180,803,o),
(180,705,cs),
(180,460,ls),
(180,360,o)
);
},
{
closed = 1;
nodes = (
(40,-100,o),
(40,0,cs),
(40,240,ls),
(40,338,o),
(180,338,o),
(180,240,cs),
(180,0,ls),
(180,-100,o)
);
}
);
width = 220;
}
);
unicode = 166;
},
{
glyphname = cent;
lastChange = "2026-06-06 19:59:53 +0000";
layers = (
{
layerId = "FDF8D1BA-B4CE-4A91-B9C2-23316F7DE4E8";
shapes = (
{
closed = 1;
nodes = (
(165,416,o),
(244,470,c),
(244,230,l),
(157,297,o)
);
},
{
closed = 1;
nodes = (
(379,230,l),
(379,470,l),
(394,460,l),
(474,395,o),
(555,479,o),
(484,555,cs),
(456,585,o),
(418,606,o),
(379,615,c),
(379,635,ls),
(379,732,o),
(244,732,o),
(244,635,cs),
(244,615,l),
(132,589,o),
(54,481,o),
(54,350,cs),
(54,223,o),
(132,114,o),
(244,80,c),
(244,60,ls),
(244,-32,o),
(379,-32,o),
(379,60,cs),
(379,85,l),
(418,97,o),
(456,117,o),
(484,145,cs),
(557,218,o),
(472,310,o),
(394,240,c)
);
}
);
width = 564.82;
}
);
unicode = 162;
},
{
glyphname = dollar;
lastChange = "2026-06-03 23:15:07 +0000";
layers = (
{
layerId = "FDF8D1BA-B4CE-4A91-B9C2-23316F7DE4E8";
shapes = (
{
closed = 1;
nodes = (
(206.55,420,o),
(191.55,440,o),
(199.55,465,cs),
(215.55,499,o),
(281.55,485,o),
(319.55,465,cs),
(421.55,415,o),
(475.55,529,o),
(389.55,580,cs),
(371.55,592,o),
(346.55,601,o),
(324.55,610,c),
(324.55,635,ls),
(326.55,736,o),
(186.55,736,o),
(184.55,635,cs),
(184.55,610,l),
(70.55,580,o),
(19.55,434,o),
(104.55,345,cs),
(179.55,266,o),
(316.55,305,o),
(314.55,245,cs),
(316.55,190,o),
(209.55,212,o),
(164.55,240,cs),
(77.55,298,o),
(1.55,190,o),
(94.55,125,cs),
(122.55,106,o),
(153.55,94,o),
(184.55,85,c),
(184.55,60,ls),
(186.55,-37,o),
(326.55,-34,o),
(324.55,60,cs),
(324.55,90,l),
(432.55,118,o),
(494.55,250,o),
(414.55,345,cs),
(368.55,399,o),
(310.55,411,o),
(264.55,415,cs)
);
}
);
width = 502.88;
}
);
unicode = 36;
},
{
glyphname = euro;
lastChange = "2026-06-06 19:59:53 +0000";
layers = (
{
layerId = "FDF8D1BA-B4CE-4A91-B9C2-23316F7DE4E8";
shapes = (
{
closed = 1;
nodes = (
(429.75,585,o),
(488.75,580,o),
(522.75,550,cs),
(616.75,469,o),
(704.75,580,o),
(617.75,650,cs),
(538.75,714,o),
(418.75,726,o),
(327.75,685,cs),
(251.75,649,o),
(197.75,577,o),
(167.75,490,c),
(122.75,490,ls),
(29.75,490,o),
(29.75,360,o),
(122.75,360,cs),
(152.75,360,l),
(152.75,320,l),
(122.75,320,ls),
(29.75,320,o),
(29.75,195,o),
(122.75,195,cs),
(172.75,195,l),
(203.75,113,o),
(256.75,48,o),
(327.75,15,cs),
(416.75,-25,o),
(540.75,-25,o),
(622.75,50,cs),
(706.75,126,o),
(611.75,224,o),
(527.75,150,cs),
(492.75,118,o),
(422.75,120,o),
(382.75,145,cs),
(366.75,155,o),
(345.75,174,o),
(332.75,195,c),
(472.75,195,ls),
(567.75,195,o),
(567.75,320,o),
(472.75,320,cs),
(297.75,320,l),
(297.75,360,l),
(512.75,360,ls),
(613.75,360,o),
(613.75,490,o),
(512.75,490,cs),
(322.75,490,l),
(339.75,517,o),
(362.75,545,o),
(387.75,560,cs)
);
}
);
width = 708.39;
}
);
unicode = 8364;
},
{
glyphname = ruble;
lastChange = "2026-06-06 19:59:53 +0000";
layers = (
{
layerId = "FDF8D1BA-B4CE-4A91-B9C2-23316F7DE4E8";
shapes = (
{
closed = 1;
nodes = (
(418.25,560,ls),
(531.25,560,o),
(531.25,425,o),
(418.25,425,cs),
(323.25,425,l),
(323.25,560,l)
);
},
{
closed = 1;
nodes = (
(418.25,290,ls),
(564.25,290,o),
(640.25,388,o),
(638.25,490,cs),
(640.25,592,o),
(564.25,700,o),
(418.25,700,cs),
(253.25,700,ls),
(215.25,700,o),
(185.25,669,o),
(183.25,630,cs),
(183.25,415,l),
(118.25,415,ls),
(31.25,415,o),
(31.25,290,o),
(118.25,290,cs),
(183.25,290,l),
(183.25,255,l),
(118.25,255,ls),
(31.25,255,o),
(31.25,125,o),
(118.25,125,cs),
(183.25,125,l),
(183.25,70,ls),
(185.25,-24,o),
(325.25,-21,o),
(323.25,70,cs),
(323.25,125,l),
(388.25,125,ls),
(481.25,125,o),
(481.25,255,o),
(388.25,255,cs),
(323.25,255,l),
(323.25,290,l)
);
}
);
width = 691.29;
}
);
unicode = 8381;
},
{
glyphname = rupeeIndian;
lastChange = "2026-06-06 19:59:53 +0000";
layers = (
{
layerId = "FDF8D1BA-B4CE-4A91-B9C2-23316F7DE4E8";
shapes = (
{
closed = 1;
nodes = (
(421,525,l),
(396,570,l),
(516,570,ls),
(611,570,o),
(611,700,o),
(516,700,cs),
(126,700,ls),
(29,700,o),
(29,570,o),
(126,570,cs),
(171,570,ls),
(221,570,o),
(253,551,o),
(276,525,c),
(126,525,ls),
(29,525,o),
(29,395,o),
(126,395,cs),
(276,395,l),
(254,370,o),
(221,350,o),
(171,350,cs),
(131,350,ls),
(70,350,o),
(40,283,o),
(81,235,cs),
(266,25,ls),
(331,-48,o),
(429,38,o),
(366,110,cs),
(261,230,l),
(343,259,o),
(395,323,o),
(421,395,c),
(516,395,ls),
(611,395,o),
(611,525,o),
(516,525,cs)
);
}
);
width = 640.63;
}
);
unicode = 8377;
},
{
glyphname = sheqel;
lastChange = "2026-06-03 23:15:07 +0000";
layers = (
{
layerId = "FDF8D1BA-B4CE-4A91-B9C2-23316F7DE4E8";
shapes = (
{
closed = 1;
nodes = (
(140,700,ls),
(100,700,o),
(70,670,o),
(70,630,cs),
(70,75,ls),
(70,-25,o),
(205,-25,o),
(205,75,cs),
(205,565,l),
(345,565,ls),
(400,565,o),
(430,525,o),
(430,490,cs),
(430,260,ls),
(430,160,o),
(565,160,o),
(565,260,cs),
(565,490,ls),
(565,675,o),
(400,700,o),
(315,700,cs)
);
},
{
closed = 1;
nodes = (
(675,0,ls),
(715,0,o),
(745,30,o),
(745,70,cs),
(745,625,ls),
(745,725,o),
(610,725,o),
(610,625,cs),
(610,135,l),
(470,135,ls),
(415,135,o),
(385,175,o),
(385,210,cs),
(385,440,ls),
(385,540,o),
(250,540,o),
(250,440,cs),
(250,210,ls),
(250,25,o),
(415,0,o),
(500,0,cs)
);
}
);
width = 815;
}
);
unicode = 8362;
},
{
glyphname = sterling;
lastChange = "2026-06-06 19:59:53 +0000";
layers = (
{
layerId = "FDF8D1BA-B4CE-4A91-B9C2-23316F7DE4E8";
shapes = (
{
closed = 1;
nodes = (
(251,145,l),
(267,185,o),
(280,227,o),
(281,275,c),
(421,275,ls),
(524,275,o),
(527,415,o),
(421,415,cs),
(281,415,l),
(283,480,o),
(288,515,o),
(306,535,cs),
(356,583,o),
(402,556,o),
(416,540,cs),
(502,459,o),
(607,572,o),
(511,650,cs),
(487,672,o),
(437,705,o),
(361,705,cs),
(288,705,o),
(238,675,o),
(201,640,cs),
(155,592,o),
(141,512,o),
(141,415,c),
(126,415,ls),
(25,415,o),
(25,275,o),
(126,275,cs),
(136,275,l),
(134,225,o),
(123,193,o),
(96,165,cs),
(36,96,o),
(79,0,o),
(176,0,cs),
(496,0,ls),
(605,0,o),
(605,145,o),
(496,145,cs)
);
}
);
width = 629.5;
}
);
unicode = 163;
},
{
glyphname = won;
lastChange = "2026-06-03 23:15:08 +0000";
layers = (
{
layerId = "FDF8D1BA-B4CE-4A91-B9C2-23316F7DE4E8";
shapes = (
{
closed = 1;
nodes = (
(695.5,250,l),
(675.5,340,l),
(720.5,340,l)
);
},
{
closed = 1;
nodes = (
(335.5,250,l),
(310.5,340,l),
(355.5,340,l)
);
},
{
closed = 1;
nodes = (
(890.5,480,l),
(925.5,610,l),
(954.5,710,o),
(819.5,735,o),
(790.5,645,c),
(745.5,480,l),
(640.5,480,l),
(610.5,605,l),
(589.5,725,o),
(444.5,725,o),
(415.5,605,c),
(385.5,480,l),
(280.5,480,l),
(235.5,645,l),
(219.5,730,o),
(79.5,705,o),
(100.5,610,c),
(135.5,480,l),
(130.5,480,l),
(24.5,480,o),
(24.5,335,o),
(130.5,335,c),
(170.5,335,l),
(235.5,90,l),
(269.5,-30,o),
(404.5,-30,o),
(430.5,90,c),
(490.5,340,l),
(540.5,340,l),
(595.5,90,l),
(629.5,-30,o),
(764.5,-30,o),
(790.5,90,c),
(855.5,335,l),
(900.5,335,l),
(1019.5,335,o),
(1019.5,480,o),
(900.5,480,c)
);
}
);
width = 1040.75;
}
);
unicode = 8361;
},
{
glyphname = yen;
lastChange = "2026-06-03 23:15:07 +0000";
layers = (
{
layerId = "FDF8D1BA-B4CE-4A91-B9C2-23316F7DE4E8";
shapes = (
{
closed = 1;
nodes = (
(510.3,575,l),
(585.3,658,o),
(477.3,754,o),
(405.3,670,cs),
(295.3,545,l),
(185.3,670,ls),
(106.3,757,o),
(-1.7,656,o),
(80.3,575,c),
(225.3,415,l),
(145.3,415,ls),
(55.3,415,o),
(55.3,285,o),
(145.3,285,cs),
(225.3,285,l),
(225.3,245,l),
(145.3,245,ls),
(55.3,245,o),
(55.3,115,o),
(145.3,115,cs),
(225.3,115,l),
(225.3,75,ls),
(225.3,34,o),
(253.3,0,o),
(295.3,0,cs),
(332.3,0,o),
(365.3,34,o),
(365.3,75,cs),
(365.3,115,l),
(440.3,115,ls),
(533.3,115,o),
(533.3,245,o),
(440.3,245,cs),
(365.3,245,l),
(365.3,285,l),
(440.3,285,ls),
(533.3,285,o),
(533.3,415,o),
(440.3,415,cs),
(365.3,415,l)
);
}
);
width = 586.71;
}
);
unicode = 165;
},
{
glyphname = plus;
lastChange = "2026-06-06 19:59:53 +0000";
layers = (
{
layerId = "FDF8D1BA-B4CE-4A91-B9C2-23316F7DE4E8";
shapes = (
{
closed = 1;
nodes = (
(405.805,430,l),
(405.805,575,ls),
(405.805,687,o),
(256.805,687,o),
(256.805,580,cs),
(256.805,430,l),
(110.805,430,ls),
(-4.195,430,o),
(-4.195,280,o),
(110.805,280,cs),
(255.805,280,l),
(255.805,135,ls),
(255.805,20,o),
(406.805,20,o),
(406.805,135,cs),
(406.805,280,l),
(550.805,280,ls),
(666.805,280,o),
(666.805,430,o),
(555.805,430,cs)
);
}
);
width = 663;
}
);
unicode = 43;
},
{
glyphname = minus;
lastChange = "2026-06-06 14:13:04 +0000";
layers = (
{
layerId = "FDF8D1BA-B4CE-4A91-B9C2-23316F7DE4E8";
shapes = (
{
closed = 1;
nodes = (
(-2.695,430,o),
(-2.695,280,o),
(113.305,280,cs),
(548.305,280,ls),
(665.305,280,o),
(665.305,430,o),
(553.305,430,cs),
(113.305,430,ls)
);
}
);
width = 663;
}
);
unicode = 8722;
},
{
glyphname = multiply;
lastChange = "2026-06-06 14:13:04 +0000";
layers = (
{
layerId = "FDF8D1BA-B4CE-4A91-B9C2-23316F7DE4E8";
shapes = (
{
closed = 1;
nodes = (
(438,350,l),
(593,505,ls),
(675,587,o),
(570,692,o),
(488,610,cs),
(333,455,l),
(173,615,ls),
(95,693,o),
(-12,585,o),
(68,505,cs),
(223,350,l),
(68,195,ls),
(-13,114,o),
(95,7,o),
(173,85,cs),
(333,245,l),
(488,90,ls),
(570,8,o),
(675,113,o),
(593,195,cs)
);
}
);
width = 663;
}
);
unicode = 215;
},
{
glyphname = asciitilde;
lastChange = "2026-06-03 23:15:07 +0000";
layers = (
{
layerId = "FDF8D1BA-B4CE-4A91-B9C2-23316F7DE4E8";
shapes = (
{
closed = 1;
nodes = (
(348.13,465,o),
(295.13,495,o),
(240.13,495,cs),
(75.13,495,o),
(27.13,355,o),
(30.13,295,cs),
(35.13,205,o),
(150.13,195,o),
(165.13,295,cs),
(171.13,338,o),
(205.13,360,o),
(245.13,360,cs),
(295.13,360,o),
(330.13,310,o),
(380.13,275,cs),
(412.13,253,o),
(455.13,227,o),
(510.13,225,cs),
(670.13,220,o),
(716.13,358,o),
(720.13,425,cs),
(725.13,515,o),
(600.13,530,o),
(585.13,425,cs),
(578.13,378,o),
(540.13,351,o),
(505.13,355,cs),
(455.13,356,o),
(430.13,405,o),
(375.13,445,cs)
);
}
);
width = 750.28;
}
);
unicode = 126;
},
{
glyphname = percent;
lastChange = "2026-06-06 20:01:49 +0000";
layers = (
{
layerId = "FDF8D1BA-B4CE-4A91-B9C2-23316F7DE4E8";
shapes = (
{
closed = 1;
nodes = (
(664.25,755,o),
(606.25,645,cs),
(326.25,120,ls),
(270.25,16,o),
(399.25,-45,o),
(451.25,50,cs),
(736.25,580,ls),
(796.25,683,o)
);
},
{
closed = 1;
nodes = (
(123.25,400,o),
(123.25,585,o),
(211.25,585,cs),
(302.25,585,o),
(302.25,400,o),
(211.25,400,cs)
);
},
{
closed = 1;
nodes = (
(-35.75,707,o),
(-35.75,273,o),
(211.25,273,cs),
(459.25,273,o),
(459.25,707,o),
(211.25,707,cs)
);
},
{
closed = 1;
nodes = (
(767.25,110,o),
(762.25,300,o),
(851.25,300,cs),
(944.25,300,o),
(944.25,110,o),
(851.25,110,cs)
);
},
{
closed = 1;
nodes = (
(606.25,423,o),
(606.25,-11,o),
(851.25,-11,cs),
(1101.25,-11,o),
(1101.25,423,o),
(851.25,423,cs)
);
}
);
width = 1064.75;
}
);
unicode = 37;
},
{
glyphname = perthousand;
lastChange = "2026-06-06 19:59:53 +0000";
layers = (
{
layerId = "FDF8D1BA-B4CE-4A91-B9C2-23316F7DE4E8";
shapes = (
{
ref = percent;
},
{
closed = 1;
nodes = (
(1227,112,o),
(1222,302,o),
(1310,300,cs),
(1404,302,o),
(1404,112,o),
(1310,110,cs)
);
},
{
closed = 1;
nodes = (
(1066,420,o),
(1066,-9,o),
(1310,-9,cs),
(1561,-9,o),
(1570,420,o),
(1310,420,cs)
);
}
);
width = 1527.64;
}
);
unicode = 8240;
},
{
glyphname = upArrow;
lastChange = "2026-06-03 23:15:07 +0000";
layers = (
{
layerId = "FDF8D1BA-B4CE-4A91-B9C2-23316F7DE4E8";
shapes = (
{
closed = 1;
nodes = (
(440.24,670,ls),
(401.24,709,o),
(344.24,710,o),
(305.24,670,cs),
(50.24,405,ls),
(-26.76,325,o),
(83.24,229,o),
(155.24,310,cs),
(305.24,480,l),
(305.24,75,ls),
(305.24,-25,o),
(445.24,-25,o),
(445.24,75,cs),
(445.24,480,l),
(605.24,315,ls),
(686.24,231,o),
(782.24,333,o),
(705.24,410,cs)
);
}
);
width = 757.52;
}
);
unicode = 8593;
},
{
glyphname = northEastArrow;
lastChange = "2026-06-06 19:59:53 +0000";
layers = (
{
layerId = "FDF8D1BA-B4CE-4A91-B9C2-23316F7DE4E8";
shapes = (
{
closed = 1;
nodes = (
(129.92,702,o),
(129.92,556,o),
(246.92,560,cs),
(471.92,570,l),
(46.92,125,ls),
(-22.08,53,o),
(79.92,-39,o),
(151.92,35,cs),
(576.92,470,l),
(566.92,250,ls),
(562.92,140,o),
(707.92,130,o),
(707.92,240,cs),
(707.92,610,ls),
(707.92,664,o),
(665.92,702,o),
(611.92,700,cs),
(236.92,700,ls)
);
}
);
width = 743.94;
}
);
unicode = 8599;
},
{
glyphname = "brevecomb-cy";
lastChange = "2026-06-06 19:59:53 +0000";
layers = (
{
anchors = (
{
name = _top;
pos = (256,380);
},
{
name = top;
pos = (256,700);
}
);
layerId = "FDF8D1BA-B4CE-4A91-B9C2-23316F7DE4E8";
shapes = (
{
closed = 1;
nodes = (
(216,450,ls),
(108,450,o),
(31,530,o),
(31,625,cs),
(31,724,o),
(161,724,o),
(161,635,cs),
(161,608,o),
(181,585,o),
(216,585,cs),
(301,585,ls),
(334,585,o),
(351,608,o),
(351,635,cs),
(351,723,o),
(481,723,o),
(481,625,cs),
(481,530,o),
(407,450,o),
(301,450,cs)
);
}
);
width = 512;
}
);
},
{
export = 0;
glyphname = "descender-cy";
lastChange = "2026-06-06 23:02:14 +0000";
layers = (
{
anchors = (
{
name = _bottomright;
pos = (97.739,0);
}
);
layerId = "FDF8D1BA-B4CE-4A91-B9C2-23316F7DE4E8";
shapes = (
{
closed = 1;
nodes = (
(2.361,138.026,o),
(2.361,0.026,o),
(104.92,0.026,cs),
(149.447,0.026,l),
(149.447,-63.857,l),
(149.447,-165.857,o),
(286.447,-165.857,o),
(286.447,-63.857,c),
(286.447,64.143,l),
(286.447,109.143,o),
(257.455,138.026,o),
(211.447,138.026,c),
(104.92,138.026,ls)
);
}
);
width = 326.45;
}
);
subCategory = Spacing;
},
{
export = 0;
glyphname = "tail-cy";
lastChange = "2026-06-06 23:02:14 +0000";
layers = (
{
anchors = (
{
name = _bottomright;
pos = (94.094,0.278);
}
);
layerId = "FDF8D1BA-B4CE-4A91-B9C2-23316F7DE4E8";
shapes = (
{
closed = 1;
nodes = (
(104.915,137.654,ls),
(2.361,137.654,o),
(2.361,0.278,o),
(104.915,0.278,cs),
(149.446,0.278,l),
(136.543,-56.305,ls),
(114.95,-151.002,o),
(246.052,-178.07,o),
(268.711,-81.799,cs),
(295.794,33.27,ls),
(310.963,97.72,o),
(281.124,137.654,o),
(209.711,137.654,cs)
);
}
);
width = 329.64;
}
);
subCategory = Spacing;
},
{
export = 0;
glyphname = "descender-cy.alt";
lastChange = "2026-06-06 23:02:14 +0000";
layers = (
{
anchors = (
{
name = _bottomright;
pos = (228.709,0);
}
);
layerId = "FDF8D1BA-B4CE-4A91-B9C2-23316F7DE4E8";
shapes = (
{
closed = 1;
nodes = (
(115.001,138.026,l),
(68.993,138.026,o),
(40.001,109.143,o),
(40.001,64.143,c),
(40.001,-63.857,l),
(40.001,-165.857,o),
(177.001,-165.857,o),
(177.001,-63.857,c),
(177.001,0.026,l),
(221.528,0.026,ls),
(324.087,0.026,o),
(324.087,138.026,o),
(221.528,138.026,cs)
);
}
);
width = 326.45;
}
);
subCategory = Spacing;
},
{
export = 0;
glyphname = "descender-cy.middle";
lastChange = "2026-06-06 23:02:14 +0000";
layers = (
{
anchors = (
{
name = _bottom;
pos = (106.807,0);
}
);
layerId = "FDF8D1BA-B4CE-4A91-B9C2-23316F7DE4E8";
shapes = (
{
closed = 1;
nodes = (
(38.997,-63.857,l),
(38.997,-165.857,o),
(175.997,-165.857,o),
(175.997,-63.731,cs),
(175.997,20.152,l),
(175.997,122.152,o),
(38.997,122.152,o),
(38.997,20.152,cs)
);
}
);
width = 215;
}
);
subCategory = Spacing;
},
{
glyphname = acutecomb;
lastChange = "2026-06-03 23:15:07 +0000";
layers = (
{
anchors = (
{
name = _top;
pos = (100.27,370);
},
{
name = top;
pos = (100.27,700);
}
);
layerId = "FDF8D1BA-B4CE-4A91-B9C2-23316F7DE4E8";
shapes = (
{
closed = 1;
nodes = (
(-22.73,495,o),
(60.27,570,cs),
(180.27,680,ls),
(256.27,751,o),
(348.27,650,o),
(275.27,580,cs),
(160.27,470,ls),
(70.27,384,o)
);
}
);
width = 329.93;
}
);
unicode = 769;
},
{
glyphname = circumflexcomb;
lastChange = "2026-06-06 19:45:01 +0000";
layers = (
{
anchors = (
{
name = _top;
pos = (236,375);
},
{
name = top;
pos = (236,700);
}
);
layerId = "FDF8D1BA-B4CE-4A91-B9C2-23316F7DE4E8";
shapes = (
{
closed = 1;
nodes = (
(290.404,678.292,l),
(256.015,710.42,o),
(214.402,710.42,o),
(180.014,678.292,c),
(60.014,568.292,l),
(-22.986,493.292,o),
(70.014,382.292,o),
(160.014,468.292,c),
(235.209,540.217,l),
(310.404,468.292,l),
(400.404,382.292,o),
(493.404,493.292,o),
(410.404,568.292,c)
);
}
);
width = 470.93;
}
);
unicode = 770;
},
{
glyphname = caroncomb;
lastChange = "2026-06-07 00:36:28 +0000";
layers = (
{
anchors = (
{
name = _top;
pos = (236.13,370);
},
{
name = top;
pos = (236.13,700);
}
);
layerId = "FDF8D1BA-B4CE-4A91-B9C2-23316F7DE4E8";
shapes = (
{
closed = 1;
nodes = (
(493.404,646.162,o),
(400.404,757.162,o),
(310.404,671.162,c),
(235.209,599.237,l),
(160.014,671.162,l),
(70.014,757.162,o),
(-22.986,646.162,o),
(60.014,571.162,c),
(180.014,461.162,l),
(214.402,429.034,o),
(256.015,429.034,o),
(290.404,461.162,c),
(410.404,571.162,l)
);
}
);
width = 470.93;
}
);
unicode = 780;
},
{
glyphname = brevecomb;
lastChange = "2026-06-06 19:59:53 +0000";
layers = (
{
anchors = (
{
name = _top;
pos = (255.65,380);
},
{
name = top;
pos = (255.65,700);
}
);
layerId = "FDF8D1BA-B4CE-4A91-B9C2-23316F7DE4E8";
shapes = (
{
closed = 1;
nodes = (
(177.65,607,o),
(215.65,584,o),
(255.65,585,cs),
(291.65,583,o),
(329.65,604,o),
(350.65,650,cs),
(392.65,745,o),
(511.65,690,o),
(475.65,600,cs),
(441.65,515,o),
(354.65,449,o),
(255.65,449,cs),
(159.65,449,o),
(69.65,514,o),
(35.65,600,cs),
(-0.35,689,o),
(119.65,744,o),
(160.65,650,cs)
);
}
);
width = 511.34;
}
);
unicode = 774;
},
{
glyphname = ringcomb;
lastChange = "2026-06-03 23:46:59 +0000";
layers = (
{
anchors = (
{
name = _top;
pos = (193.27,325);
},
{
name = top;
pos = (193.27,700);
}
);
layerId = "FDF8D1BA-B4CE-4A91-B9C2-23316F7DE4E8";
shapes = (
{
closed = 1;
nodes = (
(360.811,625.107,o),
(300.28,708.338,o),
(193.27,708.338,cs),
(90.583,708.338,o),
(27.89,625.107,o),
(25.729,540.796,cs),
(27.89,451.081,o),
(101.392,373.255,o),
(193.27,373.255,cs),
(289.471,373.255,o),
(360.811,448.919,o),
(360.811,540.796,cs)
);
},
{
pos = (114.226,491.589);
ref = period;
scale = (0.6561,0.6561);
}
);
width = 387.54;
}
);
unicode = 778;
},
{
glyphname = tildecomb;
lastChange = "2026-06-03 23:15:08 +0000";
layers = (
{
anchors = (
{
name = _top;
pos = (242,415);
},
{
name = top;
pos = (242,700);
}
);
layerId = "FDF8D1BA-B4CE-4A91-B9C2-23316F7DE4E8";
shapes = (
{
closed = 1;
nodes = (
(222,520,o),
(187,555,cs),
(182,560,o),
(172,560,o),
(172,550,cs),
(172,510,o),
(137,480,o),
(102,480,cs),
(62,480,o),
(32,515,o),
(32,555,cs),
(32,635,o),
(87,700,o),
(162,700,cs),
(222,700,o),
(257,670,o),
(297,630,cs),
(302,625,o),
(312,625,o),
(312,635,cs),
(312,675,o),
(347,705,o),
(382,705,cs),
(422,705,o),
(452,670,o),
(452,630,cs),
(452,550,o),
(397,485,o),
(322,485,cs),
(257,485,o)
);
}
);
width = 484;
}
);
unicode = 771;
},
{
glyphname = macroncomb;
lastChange = "2026-06-06 17:09:50 +0000";
layers = (
{
anchors = (
{
name = _top;
pos = (287.25,470);
},
{
name = top;
pos = (287.25,700);
}
);
layerId = "FDF8D1BA-B4CE-4A91-B9C2-23316F7DE4E8";
shapes = (
{
closed = 1;
nodes = (
(146.198,555.371,ls),
(39.198,555.371,o),
(39.198,693.371,o),
(146.198,693.371,cs),
(426.198,693.371,ls),
(535.198,693.371,o),
(535.198,555.371,o),
(426.198,555.371,cs)
);
}
);
width = 573.5;
}
);
unicode = 772;
},
{
glyphname = cedillacomb;
lastChange = "2026-06-03 23:15:07 +0000";
layers = (
{
anchors = (
{
name = _bottom;
pos = (110.75,0);
},
{
name = bottom;
pos = (110.75,-350);
}
);
layerId = "FDF8D1BA-B4CE-4A91-B9C2-23316F7DE4E8";
shapes = (
{
closed = 1;
nodes = (
(5.75,-285,o),
(5.75,-150,o),
(110.75,-150,cs),
(146.75,-150,o),
(146.75,-105,o),
(110.75,-105,cs),
(5.75,-105,o),
(5.75,35,o),
(110.75,35,cs),
(197.75,35,o),
(275.75,-32,o),
(275.75,-125,cs),
(275.75,-217,o),
(198.75,-285,o),
(110.75,-285,cs)
);
}
);
width = 305.75;
}
);
unicode = 807;
},
{
export = 0;
glyphname = caroncomb.alt;
lastChange = "2026-06-07 00:43:55 +0000";
layers = (
{
anchors = (
{
name = _top;
pos = (131.677,700);
}
);
layerId = "FDF8D1BA-B4CE-4A91-B9C2-23316F7DE4E8";
shapes = (
{
closed = 1;
nodes = (
(200.475,339.181,o),
(59.969,349.39,o),
(59.969,461.194,cs),
(59.969,623.927,ls),
(59.969,727.918,o),
(200.475,723.937,o),
(200.475,622.799,cs),
(200.475,463.662,ls)
);
}
);
width = 261.93;
}
);
},
